<svg xmlns="http://www.w3.org/2000/svg" viewBox="0 0 1080 1920" width="1080" height="1920">
<title>bg03-field — night: дальний план</title>
<defs>
<linearGradient id="bg03-night-sky" x1="0" y1="0" x2="0" y2="1"><stop offset="0" stop-color="#0a1030"/><stop offset="0.5" stop-color="#16245a"/><stop offset="1" stop-color="#2f4b8c"/></linearGradient>
<radialGradient id="bg03-night-vig" cx="0.5" cy="0.46" r="0.78">
  <stop offset="0.55" stop-color="#02040f" stop-opacity="0"/>
  <stop offset="1" stop-color="#02040f" stop-opacity="0.62"/>
</radialGradient>
<filter id="bg03-night-ink" x="-5%" y="-5%" width="110%" height="110%" color-interpolation-filters="sRGB">
  <feMorphology in="SourceAlpha" operator="dilate" radius="3.3" result="d"/>
  <feFlood flood-color="#080b1c" result="c"/>
  <feComposite in="c" in2="d" operator="in" result="o"/>
  <feMerge result="m"><feMergeNode in="o"/><feMergeNode in="SourceGraphic"/></feMerge>
  <feTurbulence type="fractalNoise" baseFrequency="0.022" numOctaves="2" seed="5" result="t"/>
  <feDisplacementMap in="m" in2="t" scale="4" xChannelSelector="R" yChannelSelector="G"/>
</filter>
<filter id="bg03-night-ink-soft" x="-5%" y="-5%" width="110%" height="110%" color-interpolation-filters="sRGB">
  <feMorphology in="SourceAlpha" operator="dilate" radius="1.6" result="d"/>
  <feFlood flood-color="#080b1c" flood-opacity="0.55" result="c"/>
  <feComposite in="c" in2="d" operator="in" result="o"/>
  <feMerge><feMergeNode in="o"/><feMergeNode in="SourceGraphic"/></feMerge>
</filter>
<filter id="bg03-night-blur-far" x="-5%" y="-5%" width="110%" height="110%"><feGaussianBlur stdDeviation="4.5"/></filter>
<filter id="bg03-night-blur-mid" x="-5%" y="-5%" width="110%" height="110%"><feGaussianBlur stdDeviation="1.8"/></filter>
<filter id="bg03-night-blur-dof" x="-5%" y="-5%" width="110%" height="110%"><feGaussianBlur stdDeviation="11"/></filter>
<filter id="bg03-night-glow" x="-60%" y="-60%" width="220%" height="220%"><feGaussianBlur stdDeviation="28"/></filter>
<filter id="bg03-night-soft" x="-30%" y="-30%" width="160%" height="160%"><feGaussianBlur stdDeviation="8"/></filter>
<filter id="bg03-night-blur-soft" x="-30%" y="-30%" width="160%" height="160%"><feGaussianBlur stdDeviation="14"/></filter>
<linearGradient id="bg03-night-ground" x1="0" y1="960" x2="0" y2="1920" gradientUnits="userSpaceOnUse"><stop offset="0" stop-color="#2c5868"/><stop offset="0.18" stop-color="#2e6650"/><stop offset="1" stop-color="#22503f"/></linearGradient><radialGradient id="bg03-night-moonlight"><stop offset="0" stop-color="#9fb6ff" stop-opacity="0.35"/><stop offset="1" stop-color="#9fb6ff" stop-opacity="0"/></radialGradient></defs>
<g id="far">
<rect x="0" y="0" width="1080" height="1000" fill="url(#bg03-night-sky)"/>
<rect x="289.4" y="581.9" width="8" height="8" fill="#eaf0ff" opacity="0.89"/>
<rect x="281.4" y="584.4" width="24" height="3" fill="#eaf0ff" opacity="0.53"/>
<rect x="291.9" y="573.9" width="3" height="24" fill="#eaf0ff" opacity="0.53"/>
<rect x="945.6" y="554.6" width="8" height="8" fill="#eaf0ff" opacity="0.53"/>
<rect x="937.6" y="557.1" width="24" height="3" fill="#eaf0ff" opacity="0.32"/>
<rect x="948.1" y="546.6" width="3" height="24" fill="#eaf0ff" opacity="0.32"/>
<rect x="254.2" y="621.9" width="4" height="4" fill="#eaf0ff" opacity="0.49"/>
<rect x="899.6" y="630.6" width="3" height="3" fill="#eaf0ff" opacity="0.69"/>
<rect x="891.2" y="518.9" width="3" height="3" fill="#eaf0ff" opacity="1.00"/>
<rect x="887.8" y="89.7" width="4" height="4" fill="#eaf0ff" opacity="0.90"/>
<rect x="794.5" y="798.4" width="4" height="4" fill="#eaf0ff" opacity="0.65"/>
<rect x="263.4" y="756.6" width="6" height="6" fill="#eaf0ff" opacity="0.76"/>
<rect x="466.8" y="318.6" width="6" height="6" fill="#eaf0ff" opacity="0.80"/>
<rect x="701.5" y="303.7" width="6" height="6" fill="#eaf0ff" opacity="0.89"/>
<rect x="1045.1" y="586.6" width="6" height="6" fill="#eaf0ff" opacity="0.79"/>
<rect x="1046.6" y="381.1" width="8" height="8" fill="#eaf0ff" opacity="0.69"/>
<rect x="1038.6" y="383.6" width="24" height="3" fill="#eaf0ff" opacity="0.42"/>
<rect x="1049.1" y="373.1" width="3" height="24" fill="#eaf0ff" opacity="0.42"/>
<rect x="203.7" y="186.2" width="6" height="6" fill="#eaf0ff" opacity="0.65"/>
<rect x="406" y="234.6" width="4" height="4" fill="#eaf0ff" opacity="0.67"/>
<rect x="156" y="422.5" width="4" height="4" fill="#eaf0ff" opacity="0.76"/>
<rect x="942.1" y="595.3" width="4" height="4" fill="#eaf0ff" opacity="0.49"/>
<rect x="697.3" y="802" width="6" height="6" fill="#eaf0ff" opacity="0.45"/>
<rect x="461.3" y="731.4" width="4" height="4" fill="#eaf0ff" opacity="0.53"/>
<rect x="858.3" y="707.3" width="8" height="8" fill="#eaf0ff" opacity="0.59"/>
<rect x="850.3" y="709.8" width="24" height="3" fill="#eaf0ff" opacity="0.35"/>
<rect x="860.8" y="699.3" width="3" height="24" fill="#eaf0ff" opacity="0.35"/>
<rect x="782.5" y="623.7" width="4" height="4" fill="#eaf0ff" opacity="0.94"/>
<rect x="855.3" y="186.5" width="8" height="8" fill="#eaf0ff" opacity="0.66"/>
<rect x="847.3" y="189" width="24" height="3" fill="#eaf0ff" opacity="0.39"/>
<rect x="857.8" y="178.5" width="3" height="24" fill="#eaf0ff" opacity="0.39"/>
<rect x="765.2" y="132.3" width="8" height="8" fill="#eaf0ff" opacity="0.78"/>
<rect x="757.2" y="134.8" width="24" height="3" fill="#eaf0ff" opacity="0.47"/>
<rect x="767.7" y="124.3" width="3" height="24" fill="#eaf0ff" opacity="0.47"/>
<rect x="771.6" y="193.6" width="6" height="6" fill="#eaf0ff" opacity="0.47"/>
<rect x="749.9" y="51.7" width="6" height="6" fill="#eaf0ff" opacity="0.85"/>
<rect x="375" y="262.2" width="4" height="4" fill="#eaf0ff" opacity="0.88"/>
<rect x="597.5" y="758.5" width="4" height="4" fill="#eaf0ff" opacity="0.49"/>
<rect x="689.3" y="476" width="6" height="6" fill="#eaf0ff" opacity="0.83"/>
<rect x="1030" y="696.8" width="8" height="8" fill="#eaf0ff" opacity="0.50"/>
<rect x="1022" y="699.3" width="24" height="3" fill="#eaf0ff" opacity="0.30"/>
<rect x="1032.5" y="688.8" width="3" height="24" fill="#eaf0ff" opacity="0.30"/>
<rect x="23.1" y="838.3" width="3" height="3" fill="#eaf0ff" opacity="0.67"/>
<rect x="963" y="483.3" width="8" height="8" fill="#eaf0ff" opacity="0.49"/>
<rect x="955" y="485.8" width="24" height="3" fill="#eaf0ff" opacity="0.30"/>
<rect x="965.5" y="475.3" width="3" height="24" fill="#eaf0ff" opacity="0.30"/>
<rect x="508.7" y="320.7" width="3" height="3" fill="#eaf0ff" opacity="0.45"/>
<rect x="368.1" y="427.2" width="6" height="6" fill="#eaf0ff" opacity="0.73"/>
<rect x="513.2" y="569" width="4" height="4" fill="#eaf0ff" opacity="0.89"/>
<rect x="411.2" y="605.7" width="4" height="4" fill="#eaf0ff" opacity="0.86"/>
<rect x="288.6" y="580.9" width="4" height="4" fill="#eaf0ff" opacity="0.59"/>
<rect x="631.5" y="311.6" width="4" height="4" fill="#eaf0ff" opacity="0.78"/>
<rect x="465" y="545.4" width="6" height="6" fill="#eaf0ff" opacity="0.47"/>
<rect x="433.5" y="91.1" width="3" height="3" fill="#eaf0ff" opacity="0.78"/>
<rect x="24.3" y="654.6" width="4" height="4" fill="#eaf0ff" opacity="0.70"/>
<rect x="1051.2" y="339.5" width="3" height="3" fill="#eaf0ff" opacity="0.61"/>
<rect x="472.4" y="132.3" width="3" height="3" fill="#eaf0ff" opacity="0.51"/>
<rect x="876.4" y="199" width="4" height="4" fill="#eaf0ff" opacity="0.78"/>
<rect x="322.6" y="305" width="3" height="3" fill="#eaf0ff" opacity="0.65"/>
<rect x="479.5" y="738.7" width="6" height="6" fill="#eaf0ff" opacity="0.47"/>
<rect x="576.5" y="126.1" width="3" height="3" fill="#eaf0ff" opacity="0.63"/>
<rect x="948.6" y="467.2" width="4" height="4" fill="#eaf0ff" opacity="0.95"/>
<rect x="950.3" y="768.1" width="8" height="8" fill="#eaf0ff" opacity="0.53"/>
<rect x="942.3" y="770.6" width="24" height="3" fill="#eaf0ff" opacity="0.32"/>
<rect x="952.8" y="760.1" width="3" height="24" fill="#eaf0ff" opacity="0.32"/>
<rect x="518.1" y="324.8" width="4" height="4" fill="#eaf0ff" opacity="0.60"/>
<rect x="874.4" y="58.5" width="4" height="4" fill="#eaf0ff" opacity="0.82"/>
<rect x="992.8" y="446.3" width="6" height="6" fill="#eaf0ff" opacity="0.56"/>
<rect x="428.8" y="64.5" width="6" height="6" fill="#eaf0ff" opacity="0.94"/>
<rect x="140" y="132.5" width="6" height="6" fill="#eaf0ff" opacity="0.87"/>
<rect x="405.6" y="345.2" width="4" height="4" fill="#eaf0ff" opacity="0.98"/>
<rect x="329.8" y="91.2" width="3" height="3" fill="#eaf0ff" opacity="0.96"/>
<rect x="193.7" y="32.8" width="6" height="6" fill="#eaf0ff" opacity="0.84"/>
<rect x="921" y="839.7" width="8" height="8" fill="#eaf0ff" opacity="0.68"/>
<rect x="913" y="842.2" width="24" height="3" fill="#eaf0ff" opacity="0.41"/>
<rect x="923.5" y="831.7" width="3" height="24" fill="#eaf0ff" opacity="0.41"/>
<rect x="667" y="703.2" width="8" height="8" fill="#eaf0ff" opacity="0.84"/>
<rect x="659" y="705.7" width="24" height="3" fill="#eaf0ff" opacity="0.50"/>
<rect x="669.5" y="695.2" width="3" height="24" fill="#eaf0ff" opacity="0.50"/>
<rect x="975.1" y="53.4" width="3" height="3" fill="#eaf0ff" opacity="0.62"/>
<rect x="1056" y="406.4" width="4" height="4" fill="#eaf0ff" opacity="0.53"/>
<rect x="175.5" y="266.8" width="6" height="6" fill="#eaf0ff" opacity="0.47"/>
<rect x="289.4" y="292.2" width="4" height="4" fill="#eaf0ff" opacity="0.97"/>
<rect x="1010.5" y="327.5" width="4" height="4" fill="#eaf0ff" opacity="1.00"/>
<rect x="812.3" y="416.9" width="4" height="4" fill="#eaf0ff" opacity="0.54"/>
<rect x="621.3" y="805.6" width="6" height="6" fill="#eaf0ff" opacity="0.56"/>
<rect x="410.6" y="410.4" width="4" height="4" fill="#eaf0ff" opacity="0.47"/>
<rect x="961.9" y="415.2" width="6" height="6" fill="#eaf0ff" opacity="0.55"/>
<rect x="127" y="502.9" width="4" height="4" fill="#eaf0ff" opacity="0.49"/>
<rect x="959.8" y="488.4" width="8" height="8" fill="#eaf0ff" opacity="0.91"/>
<rect x="951.8" y="490.9" width="24" height="3" fill="#eaf0ff" opacity="0.55"/>
<rect x="962.3" y="480.4" width="3" height="24" fill="#eaf0ff" opacity="0.55"/>
<rect x="242.9" y="631.2" width="8" height="8" fill="#eaf0ff" opacity="0.83"/>
<rect x="234.9" y="633.7" width="24" height="3" fill="#eaf0ff" opacity="0.50"/>
<rect x="245.4" y="623.2" width="3" height="24" fill="#eaf0ff" opacity="0.50"/>
<rect x="48.1" y="455.9" width="8" height="8" fill="#eaf0ff" opacity="0.53"/>
<rect x="40.1" y="458.4" width="24" height="3" fill="#eaf0ff" opacity="0.32"/>
<rect x="50.6" y="447.9" width="3" height="24" fill="#eaf0ff" opacity="0.32"/>
<rect x="600" y="330" width="132" height="33" fill="#2a3a74"/>
<rect x="534" y="363" width="330" height="33" fill="#2a3a74"/>
<rect x="798" y="363" width="132" height="33" fill="#2a3a74"/>
<rect x="600" y="330" width="132" height="7.9" fill="#35498a"/>
<rect x="80" y="600" width="200" height="25" fill="#2a3a74"/>
<rect x="130" y="625" width="100" height="25" fill="#2a3a74"/>
<rect x="80" y="600" width="200" height="6" fill="#35498a"/>
<circle cx="1080" cy="120" r="520" fill="url(#bg03-night-moonlight)"/>
<g filter="url(#bg03-night-blur-far)"><path d="M620 965 L620 940 L660 940 L660 900 L700 900 L700 860 L740 860 L740 860 L780 860 L780 800 L820 800 L820 780 L860 780 L860 700 L900 700 L900 720 L940 720 L940 780 L980 780 L980 800 L1020 800 L1020 860 L1060 860 L1060 900 L1100 900 L1100 920 L1140 920 L1140 940 L1180 940 L1180 965 Z" fill="#22346e"/><path d="M-40 1920 L-40 965 L-40 893.7 L48 893.7 L48 893.7 L92 893.7 L92 871.7 L136 871.7 L136 871.7 L268 871.7 L268 871.7 L356 871.7 L356 871.7 L444 871.7 L444 855 L488 855 L488 855 L576 855 L576 855 L708 855 L708 855 L840 855 L840 877 L928 877 L928 855 L1016 855 L1016 855 L1060 855 L1060 877 L1120 877 L1120 855 L1120 1920 Z" fill="#22346e"/></g>
<g filter="url(#bg03-night-blur-mid)"><path d="M-40 1920 L-40 970 L-40 964.8 L-4 964.8 L-4 970 L104 970 L104 952 L140 952 L140 934 L212 934 L212 952 L248 952 L248 934 L284 934 L284 952 L320 952 L320 934 L428 934 L428 924 L464 924 L464 924 L536 924 L536 924 L572 924 L572 924 L644 924 L644 924 L680 924 L680 924 L788 924 L788 942 L860 942 L860 960 L896 960 L896 970 L932 970 L932 952 L968 952 L968 952 L1040 952 L1040 934 L1120 934 L1120 952 L1120 1920 Z" fill="#1b3550"/><rect x="65.5" y="931" width="9" height="33" fill="#183044"/><rect x="47.5" y="907" width="45" height="18" fill="#183044"/><rect x="55" y="895" width="30" height="13.5" fill="#183044"/><rect x="184.3" y="922.2" width="11.4" height="41.8" fill="#183044"/><rect x="161.5" y="891.8" width="57" height="22.8" fill="#183044"/><rect x="171" y="876.6" width="38" height="17.1" fill="#183044"/><rect x="325.8" y="933.2" width="8.4" height="30.8" fill="#183044"/><rect x="309" y="910.8" width="42" height="16.8" fill="#183044"/><rect x="316" y="899.6" width="28" height="12.6" fill="#183044"/><rect x="464.9" y="926.6" width="10.2" height="37.4" fill="#183044"/><rect x="444.5" y="899.4" width="51" height="20.4" fill="#183044"/><rect x="453" y="885.8" width="34" height="15.3" fill="#183044"/><rect x="606.1" y="935.4" width="7.8" height="28.6" fill="#183044"/><rect x="590.5" y="914.6" width="39" height="15.6" fill="#183044"/><rect x="597" y="904.2" width="26" height="11.7" fill="#183044"/><rect x="925.2" y="928.8" width="9.6" height="35.2" fill="#183044"/><rect x="906" y="903.2" width="48" height="19.2" fill="#183044"/><rect x="914" y="890.4" width="32" height="14.4" fill="#183044"/><rect x="1024.6" y="924.4" width="10.8" height="39.6" fill="#183044"/><rect x="1003" y="895.6" width="54" height="21.6" fill="#183044"/><rect x="1012" y="881.2" width="36" height="16.2" fill="#183044"/></g>
<g filter="url(#bg03-night-blur-mid)"><rect x="470" y="890" width="120" height="78" fill="#4a4256"/><rect x="470" y="909.5" width="120" height="2" fill="#352f42"/><rect x="470" y="929" width="120" height="2" fill="#352f42"/><rect x="470" y="948.5" width="120" height="2" fill="#352f42"/><rect x="461" y="875" width="138" height="15" fill="#2a2232"/><rect x="476" y="860" width="108" height="15" fill="#2a2232"/><rect x="494" y="846.5" width="72" height="13.5" fill="#2a2232"/><rect x="482" y="920" width="24" height="48" fill="#352f42"/><rect x="518" y="887" width="63" height="60" fill="#ffb84a" opacity="0.55" filter="url(#bg03-night-soft)"/><rect x="536" y="905" width="27" height="24" fill="#ffd772"/><rect x="548.6" y="905" width="2.4" height="24" fill="#352f42"/><rect x="536" y="915.8" width="27" height="2.4" fill="#352f42"/></g>
</g>
</svg>
