<svg xmlns="http://www.w3.org/2000/svg" viewBox="0 0 1080 1920" width="1080" height="1920">
<title>bg03-field — night</title>
<defs>
<linearGradient id="bg03-night-sky" x1="0" y1="0" x2="0" y2="1"><stop offset="0" stop-color="#0a1030"/><stop offset="0.5" stop-color="#16245a"/><stop offset="1" stop-color="#2f4b8c"/></linearGradient>
<radialGradient id="bg03-night-vig" cx="0.5" cy="0.46" r="0.78">
  <stop offset="0.55" stop-color="#02040f" stop-opacity="0"/>
  <stop offset="1" stop-color="#02040f" stop-opacity="0.62"/>
</radialGradient>
<filter id="bg03-night-ink" x="-5%" y="-5%" width="110%" height="110%" color-interpolation-filters="sRGB">
  <feMorphology in="SourceAlpha" operator="dilate" radius="3.3" result="d"/>
  <feFlood flood-color="#080b1c" result="c"/>
  <feComposite in="c" in2="d" operator="in" result="o"/>
  <feMerge result="m"><feMergeNode in="o"/><feMergeNode in="SourceGraphic"/></feMerge>
  <feTurbulence type="fractalNoise" baseFrequency="0.022" numOctaves="2" seed="5" result="t"/>
  <feDisplacementMap in="m" in2="t" scale="4" xChannelSelector="R" yChannelSelector="G"/>
</filter>
<filter id="bg03-night-ink-soft" x="-5%" y="-5%" width="110%" height="110%" color-interpolation-filters="sRGB">
  <feMorphology in="SourceAlpha" operator="dilate" radius="1.6" result="d"/>
  <feFlood flood-color="#080b1c" flood-opacity="0.55" result="c"/>
  <feComposite in="c" in2="d" operator="in" result="o"/>
  <feMerge><feMergeNode in="o"/><feMergeNode in="SourceGraphic"/></feMerge>
</filter>
<filter id="bg03-night-blur-far" x="-5%" y="-5%" width="110%" height="110%"><feGaussianBlur stdDeviation="4.5"/></filter>
<filter id="bg03-night-blur-mid" x="-5%" y="-5%" width="110%" height="110%"><feGaussianBlur stdDeviation="1.8"/></filter>
<filter id="bg03-night-blur-dof" x="-5%" y="-5%" width="110%" height="110%"><feGaussianBlur stdDeviation="11"/></filter>
<filter id="bg03-night-glow" x="-60%" y="-60%" width="220%" height="220%"><feGaussianBlur stdDeviation="28"/></filter>
<filter id="bg03-night-soft" x="-30%" y="-30%" width="160%" height="160%"><feGaussianBlur stdDeviation="8"/></filter>
<filter id="bg03-night-blur-soft" x="-30%" y="-30%" width="160%" height="160%"><feGaussianBlur stdDeviation="14"/></filter>
<linearGradient id="bg03-night-ground" x1="0" y1="960" x2="0" y2="1920" gradientUnits="userSpaceOnUse"><stop offset="0" stop-color="#2c5868"/><stop offset="0.18" stop-color="#2e6650"/><stop offset="1" stop-color="#22503f"/></linearGradient><radialGradient id="bg03-night-moonlight"><stop offset="0" stop-color="#9fb6ff" stop-opacity="0.35"/><stop offset="1" stop-color="#9fb6ff" stop-opacity="0"/></radialGradient></defs>
<g id="far">
<rect x="0" y="0" width="1080" height="1000" fill="url(#bg03-night-sky)"/>
<rect x="289.4" y="581.9" width="8" height="8" fill="#eaf0ff" opacity="0.89"/>
<rect x="281.4" y="584.4" width="24" height="3" fill="#eaf0ff" opacity="0.53"/>
<rect x="291.9" y="573.9" width="3" height="24" fill="#eaf0ff" opacity="0.53"/>
<rect x="945.6" y="554.6" width="8" height="8" fill="#eaf0ff" opacity="0.53"/>
<rect x="937.6" y="557.1" width="24" height="3" fill="#eaf0ff" opacity="0.32"/>
<rect x="948.1" y="546.6" width="3" height="24" fill="#eaf0ff" opacity="0.32"/>
<rect x="254.2" y="621.9" width="4" height="4" fill="#eaf0ff" opacity="0.49"/>
<rect x="899.6" y="630.6" width="3" height="3" fill="#eaf0ff" opacity="0.69"/>
<rect x="891.2" y="518.9" width="3" height="3" fill="#eaf0ff" opacity="1.00"/>
<rect x="887.8" y="89.7" width="4" height="4" fill="#eaf0ff" opacity="0.90"/>
<rect x="794.5" y="798.4" width="4" height="4" fill="#eaf0ff" opacity="0.65"/>
<rect x="263.4" y="756.6" width="6" height="6" fill="#eaf0ff" opacity="0.76"/>
<rect x="466.8" y="318.6" width="6" height="6" fill="#eaf0ff" opacity="0.80"/>
<rect x="701.5" y="303.7" width="6" height="6" fill="#eaf0ff" opacity="0.89"/>
<rect x="1045.1" y="586.6" width="6" height="6" fill="#eaf0ff" opacity="0.79"/>
<rect x="1046.6" y="381.1" width="8" height="8" fill="#eaf0ff" opacity="0.69"/>
<rect x="1038.6" y="383.6" width="24" height="3" fill="#eaf0ff" opacity="0.42"/>
<rect x="1049.1" y="373.1" width="3" height="24" fill="#eaf0ff" opacity="0.42"/>
<rect x="203.7" y="186.2" width="6" height="6" fill="#eaf0ff" opacity="0.65"/>
<rect x="406" y="234.6" width="4" height="4" fill="#eaf0ff" opacity="0.67"/>
<rect x="156" y="422.5" width="4" height="4" fill="#eaf0ff" opacity="0.76"/>
<rect x="942.1" y="595.3" width="4" height="4" fill="#eaf0ff" opacity="0.49"/>
<rect x="697.3" y="802" width="6" height="6" fill="#eaf0ff" opacity="0.45"/>
<rect x="461.3" y="731.4" width="4" height="4" fill="#eaf0ff" opacity="0.53"/>
<rect x="858.3" y="707.3" width="8" height="8" fill="#eaf0ff" opacity="0.59"/>
<rect x="850.3" y="709.8" width="24" height="3" fill="#eaf0ff" opacity="0.35"/>
<rect x="860.8" y="699.3" width="3" height="24" fill="#eaf0ff" opacity="0.35"/>
<rect x="782.5" y="623.7" width="4" height="4" fill="#eaf0ff" opacity="0.94"/>
<rect x="855.3" y="186.5" width="8" height="8" fill="#eaf0ff" opacity="0.66"/>
<rect x="847.3" y="189" width="24" height="3" fill="#eaf0ff" opacity="0.39"/>
<rect x="857.8" y="178.5" width="3" height="24" fill="#eaf0ff" opacity="0.39"/>
<rect x="765.2" y="132.3" width="8" height="8" fill="#eaf0ff" opacity="0.78"/>
<rect x="757.2" y="134.8" width="24" height="3" fill="#eaf0ff" opacity="0.47"/>
<rect x="767.7" y="124.3" width="3" height="24" fill="#eaf0ff" opacity="0.47"/>
<rect x="771.6" y="193.6" width="6" height="6" fill="#eaf0ff" opacity="0.47"/>
<rect x="749.9" y="51.7" width="6" height="6" fill="#eaf0ff" opacity="0.85"/>
<rect x="375" y="262.2" width="4" height="4" fill="#eaf0ff" opacity="0.88"/>
<rect x="597.5" y="758.5" width="4" height="4" fill="#eaf0ff" opacity="0.49"/>
<rect x="689.3" y="476" width="6" height="6" fill="#eaf0ff" opacity="0.83"/>
<rect x="1030" y="696.8" width="8" height="8" fill="#eaf0ff" opacity="0.50"/>
<rect x="1022" y="699.3" width="24" height="3" fill="#eaf0ff" opacity="0.30"/>
<rect x="1032.5" y="688.8" width="3" height="24" fill="#eaf0ff" opacity="0.30"/>
<rect x="23.1" y="838.3" width="3" height="3" fill="#eaf0ff" opacity="0.67"/>
<rect x="963" y="483.3" width="8" height="8" fill="#eaf0ff" opacity="0.49"/>
<rect x="955" y="485.8" width="24" height="3" fill="#eaf0ff" opacity="0.30"/>
<rect x="965.5" y="475.3" width="3" height="24" fill="#eaf0ff" opacity="0.30"/>
<rect x="508.7" y="320.7" width="3" height="3" fill="#eaf0ff" opacity="0.45"/>
<rect x="368.1" y="427.2" width="6" height="6" fill="#eaf0ff" opacity="0.73"/>
<rect x="513.2" y="569" width="4" height="4" fill="#eaf0ff" opacity="0.89"/>
<rect x="411.2" y="605.7" width="4" height="4" fill="#eaf0ff" opacity="0.86"/>
<rect x="288.6" y="580.9" width="4" height="4" fill="#eaf0ff" opacity="0.59"/>
<rect x="631.5" y="311.6" width="4" height="4" fill="#eaf0ff" opacity="0.78"/>
<rect x="465" y="545.4" width="6" height="6" fill="#eaf0ff" opacity="0.47"/>
<rect x="433.5" y="91.1" width="3" height="3" fill="#eaf0ff" opacity="0.78"/>
<rect x="24.3" y="654.6" width="4" height="4" fill="#eaf0ff" opacity="0.70"/>
<rect x="1051.2" y="339.5" width="3" height="3" fill="#eaf0ff" opacity="0.61"/>
<rect x="472.4" y="132.3" width="3" height="3" fill="#eaf0ff" opacity="0.51"/>
<rect x="876.4" y="199" width="4" height="4" fill="#eaf0ff" opacity="0.78"/>
<rect x="322.6" y="305" width="3" height="3" fill="#eaf0ff" opacity="0.65"/>
<rect x="479.5" y="738.7" width="6" height="6" fill="#eaf0ff" opacity="0.47"/>
<rect x="576.5" y="126.1" width="3" height="3" fill="#eaf0ff" opacity="0.63"/>
<rect x="948.6" y="467.2" width="4" height="4" fill="#eaf0ff" opacity="0.95"/>
<rect x="950.3" y="768.1" width="8" height="8" fill="#eaf0ff" opacity="0.53"/>
<rect x="942.3" y="770.6" width="24" height="3" fill="#eaf0ff" opacity="0.32"/>
<rect x="952.8" y="760.1" width="3" height="24" fill="#eaf0ff" opacity="0.32"/>
<rect x="518.1" y="324.8" width="4" height="4" fill="#eaf0ff" opacity="0.60"/>
<rect x="874.4" y="58.5" width="4" height="4" fill="#eaf0ff" opacity="0.82"/>
<rect x="992.8" y="446.3" width="6" height="6" fill="#eaf0ff" opacity="0.56"/>
<rect x="428.8" y="64.5" width="6" height="6" fill="#eaf0ff" opacity="0.94"/>
<rect x="140" y="132.5" width="6" height="6" fill="#eaf0ff" opacity="0.87"/>
<rect x="405.6" y="345.2" width="4" height="4" fill="#eaf0ff" opacity="0.98"/>
<rect x="329.8" y="91.2" width="3" height="3" fill="#eaf0ff" opacity="0.96"/>
<rect x="193.7" y="32.8" width="6" height="6" fill="#eaf0ff" opacity="0.84"/>
<rect x="921" y="839.7" width="8" height="8" fill="#eaf0ff" opacity="0.68"/>
<rect x="913" y="842.2" width="24" height="3" fill="#eaf0ff" opacity="0.41"/>
<rect x="923.5" y="831.7" width="3" height="24" fill="#eaf0ff" opacity="0.41"/>
<rect x="667" y="703.2" width="8" height="8" fill="#eaf0ff" opacity="0.84"/>
<rect x="659" y="705.7" width="24" height="3" fill="#eaf0ff" opacity="0.50"/>
<rect x="669.5" y="695.2" width="3" height="24" fill="#eaf0ff" opacity="0.50"/>
<rect x="975.1" y="53.4" width="3" height="3" fill="#eaf0ff" opacity="0.62"/>
<rect x="1056" y="406.4" width="4" height="4" fill="#eaf0ff" opacity="0.53"/>
<rect x="175.5" y="266.8" width="6" height="6" fill="#eaf0ff" opacity="0.47"/>
<rect x="289.4" y="292.2" width="4" height="4" fill="#eaf0ff" opacity="0.97"/>
<rect x="1010.5" y="327.5" width="4" height="4" fill="#eaf0ff" opacity="1.00"/>
<rect x="812.3" y="416.9" width="4" height="4" fill="#eaf0ff" opacity="0.54"/>
<rect x="621.3" y="805.6" width="6" height="6" fill="#eaf0ff" opacity="0.56"/>
<rect x="410.6" y="410.4" width="4" height="4" fill="#eaf0ff" opacity="0.47"/>
<rect x="961.9" y="415.2" width="6" height="6" fill="#eaf0ff" opacity="0.55"/>
<rect x="127" y="502.9" width="4" height="4" fill="#eaf0ff" opacity="0.49"/>
<rect x="959.8" y="488.4" width="8" height="8" fill="#eaf0ff" opacity="0.91"/>
<rect x="951.8" y="490.9" width="24" height="3" fill="#eaf0ff" opacity="0.55"/>
<rect x="962.3" y="480.4" width="3" height="24" fill="#eaf0ff" opacity="0.55"/>
<rect x="242.9" y="631.2" width="8" height="8" fill="#eaf0ff" opacity="0.83"/>
<rect x="234.9" y="633.7" width="24" height="3" fill="#eaf0ff" opacity="0.50"/>
<rect x="245.4" y="623.2" width="3" height="24" fill="#eaf0ff" opacity="0.50"/>
<rect x="48.1" y="455.9" width="8" height="8" fill="#eaf0ff" opacity="0.53"/>
<rect x="40.1" y="458.4" width="24" height="3" fill="#eaf0ff" opacity="0.32"/>
<rect x="50.6" y="447.9" width="3" height="24" fill="#eaf0ff" opacity="0.32"/>
<rect x="600" y="330" width="132" height="33" fill="#2a3a74"/>
<rect x="534" y="363" width="330" height="33" fill="#2a3a74"/>
<rect x="798" y="363" width="132" height="33" fill="#2a3a74"/>
<rect x="600" y="330" width="132" height="7.9" fill="#35498a"/>
<rect x="80" y="600" width="200" height="25" fill="#2a3a74"/>
<rect x="130" y="625" width="100" height="25" fill="#2a3a74"/>
<rect x="80" y="600" width="200" height="6" fill="#35498a"/>
<circle cx="1080" cy="120" r="520" fill="url(#bg03-night-moonlight)"/>
<g filter="url(#bg03-night-blur-far)"><path d="M620 965 L620 940 L660 940 L660 900 L700 900 L700 860 L740 860 L740 860 L780 860 L780 800 L820 800 L820 780 L860 780 L860 700 L900 700 L900 720 L940 720 L940 780 L980 780 L980 800 L1020 800 L1020 860 L1060 860 L1060 900 L1100 900 L1100 920 L1140 920 L1140 940 L1180 940 L1180 965 Z" fill="#22346e"/><path d="M-40 1920 L-40 965 L-40 893.7 L48 893.7 L48 893.7 L92 893.7 L92 871.7 L136 871.7 L136 871.7 L268 871.7 L268 871.7 L356 871.7 L356 871.7 L444 871.7 L444 855 L488 855 L488 855 L576 855 L576 855 L708 855 L708 855 L840 855 L840 877 L928 877 L928 855 L1016 855 L1016 855 L1060 855 L1060 877 L1120 877 L1120 855 L1120 1920 Z" fill="#22346e"/></g>
<g filter="url(#bg03-night-blur-mid)"><path d="M-40 1920 L-40 970 L-40 964.8 L-4 964.8 L-4 970 L104 970 L104 952 L140 952 L140 934 L212 934 L212 952 L248 952 L248 934 L284 934 L284 952 L320 952 L320 934 L428 934 L428 924 L464 924 L464 924 L536 924 L536 924 L572 924 L572 924 L644 924 L644 924 L680 924 L680 924 L788 924 L788 942 L860 942 L860 960 L896 960 L896 970 L932 970 L932 952 L968 952 L968 952 L1040 952 L1040 934 L1120 934 L1120 952 L1120 1920 Z" fill="#1b3550"/><rect x="65.5" y="931" width="9" height="33" fill="#183044"/><rect x="47.5" y="907" width="45" height="18" fill="#183044"/><rect x="55" y="895" width="30" height="13.5" fill="#183044"/><rect x="184.3" y="922.2" width="11.4" height="41.8" fill="#183044"/><rect x="161.5" y="891.8" width="57" height="22.8" fill="#183044"/><rect x="171" y="876.6" width="38" height="17.1" fill="#183044"/><rect x="325.8" y="933.2" width="8.4" height="30.8" fill="#183044"/><rect x="309" y="910.8" width="42" height="16.8" fill="#183044"/><rect x="316" y="899.6" width="28" height="12.6" fill="#183044"/><rect x="464.9" y="926.6" width="10.2" height="37.4" fill="#183044"/><rect x="444.5" y="899.4" width="51" height="20.4" fill="#183044"/><rect x="453" y="885.8" width="34" height="15.3" fill="#183044"/><rect x="606.1" y="935.4" width="7.8" height="28.6" fill="#183044"/><rect x="590.5" y="914.6" width="39" height="15.6" fill="#183044"/><rect x="597" y="904.2" width="26" height="11.7" fill="#183044"/><rect x="925.2" y="928.8" width="9.6" height="35.2" fill="#183044"/><rect x="906" y="903.2" width="48" height="19.2" fill="#183044"/><rect x="914" y="890.4" width="32" height="14.4" fill="#183044"/><rect x="1024.6" y="924.4" width="10.8" height="39.6" fill="#183044"/><rect x="1003" y="895.6" width="54" height="21.6" fill="#183044"/><rect x="1012" y="881.2" width="36" height="16.2" fill="#183044"/></g>
<g filter="url(#bg03-night-blur-mid)"><rect x="470" y="890" width="120" height="78" fill="#4a4256"/><rect x="470" y="909.5" width="120" height="2" fill="#352f42"/><rect x="470" y="929" width="120" height="2" fill="#352f42"/><rect x="470" y="948.5" width="120" height="2" fill="#352f42"/><rect x="461" y="875" width="138" height="15" fill="#2a2232"/><rect x="476" y="860" width="108" height="15" fill="#2a2232"/><rect x="494" y="846.5" width="72" height="13.5" fill="#2a2232"/><rect x="482" y="920" width="24" height="48" fill="#352f42"/><rect x="518" y="887" width="63" height="60" fill="#ffb84a" opacity="0.55" filter="url(#bg03-night-soft)"/><rect x="536" y="905" width="27" height="24" fill="#ffd772"/><rect x="548.6" y="905" width="2.4" height="24" fill="#352f42"/><rect x="536" y="915.8" width="27" height="2.4" fill="#352f42"/></g>
</g>
<g id="mid">
<rect x="0" y="960" width="1080" height="960" fill="url(#bg03-night-ground)"/>
<rect x="810.6" y="1491.3" width="60.8" height="10.1" fill="#3c7a60" opacity="0.4"/>
<rect x="308.8" y="1791.8" width="57" height="14.2" fill="#22503f" opacity="0.4"/>
<rect x="815.3" y="1680" width="50.9" height="12.7" fill="#3c7a60" opacity="0.4"/>
<rect x="993" y="1735.1" width="26.9" height="13.5" fill="#3c7a60" opacity="0.4"/>
<rect x="555.2" y="978.2" width="6.2" height="3.1" fill="#3c7a60" opacity="0.4"/>
<rect x="27.2" y="1325.8" width="47.2" height="7.9" fill="#3c7a60" opacity="0.4"/>
<rect x="253.4" y="1019" width="14.7" height="3.7" fill="#22503f" opacity="0.4"/>
<rect x="177.3" y="1119.2" width="10.1" height="5" fill="#3c7a60" opacity="0.4"/>
<rect x="89.7" y="1773.8" width="28" height="14" fill="#22503f" opacity="0.4"/>
<rect x="140.4" y="1610.5" width="70.6" height="11.8" fill="#3c7a60" opacity="0.4"/>
<rect x="534.9" y="1893.8" width="62.6" height="15.6" fill="#3c7a60" opacity="0.4"/>
<rect x="838.2" y="1003.9" width="13.9" height="3.5" fill="#22503f" opacity="0.4"/>
<rect x="896.5" y="1814.5" width="87.3" height="14.6" fill="#3c7a60" opacity="0.4"/>
<rect x="105.7" y="1490.9" width="40.5" height="10.1" fill="#3c7a60" opacity="0.4"/>
<rect x="477.6" y="1780.5" width="84.5" height="14.1" fill="#22503f" opacity="0.4"/>
<rect x="629.7" y="1216.8" width="12.8" height="6.4" fill="#22503f" opacity="0.4"/>
<rect x="878.5" y="1716.6" width="26.4" height="13.2" fill="#22503f" opacity="0.4"/>
<rect x="1025.1" y="1059.8" width="8.5" height="4.2" fill="#22503f" opacity="0.4"/>
<rect x="964" y="1092.4" width="28.1" height="4.7" fill="#22503f" opacity="0.4"/>
<rect x="544" y="1607.9" width="23.5" height="11.7" fill="#3c7a60" opacity="0.4"/>
<rect x="798.9" y="1488.9" width="20.2" height="10.1" fill="#3c7a60" opacity="0.4"/>
<rect x="795.2" y="1754.5" width="54.9" height="13.7" fill="#22503f" opacity="0.4"/>
<rect x="522.4" y="1296" width="29.8" height="7.5" fill="#22503f" opacity="0.4"/>
<rect x="590.1" y="1296.9" width="44.8" height="7.5" fill="#3c7a60" opacity="0.4"/>
<rect x="1060.4" y="1664.9" width="50" height="12.5" fill="#22503f" opacity="0.4"/>
<rect x="661.3" y="1399" width="35.5" height="8.9" fill="#22503f" opacity="0.4"/>
<rect x="1028.2" y="1192.4" width="24.2" height="6" fill="#22503f" opacity="0.4"/>
<rect x="114" y="1877.9" width="92.5" height="15.4" fill="#3c7a60" opacity="0.4"/>
<rect x="457.8" y="1084.2" width="9.1" height="4.6" fill="#3c7a60" opacity="0.4"/>
<rect x="606.7" y="1303.4" width="15.1" height="7.6" fill="#22503f" opacity="0.4"/>
<rect x="981.1" y="1547.3" width="21.8" height="10.9" fill="#3c7a60" opacity="0.4"/>
<rect x="836.6" y="1275.6" width="43.1" height="7.2" fill="#22503f" opacity="0.4"/>
<rect x="768.1" y="1848.9" width="30.1" height="15" fill="#3c7a60" opacity="0.4"/>
<rect x="262.6" y="1696.6" width="25.9" height="12.9" fill="#22503f" opacity="0.4"/>
<rect x="278.7" y="1349.3" width="16.4" height="8.2" fill="#3c7a60" opacity="0.4"/>
<rect x="203.1" y="1400.3" width="35.6" height="8.9" fill="#22503f" opacity="0.4"/>
<rect x="659.6" y="1390.3" width="17.5" height="8.8" fill="#22503f" opacity="0.4"/>
<rect x="956.9" y="1876.9" width="92.5" height="15.4" fill="#3c7a60" opacity="0.4"/>
<rect x="285.7" y="1770.5" width="83.7" height="14" fill="#22503f" opacity="0.4"/>
<rect x="394.8" y="1321.4" width="46.9" height="7.8" fill="#22503f" opacity="0.4"/>
<rect x="349.3" y="1018.8" width="14.7" height="3.7" fill="#22503f" opacity="0.4"/>
<rect x="608" y="1047.5" width="24.4" height="4.1" fill="#3c7a60" opacity="0.4"/>
<rect x="56.5" y="1871.8" width="30.7" height="15.3" fill="#3c7a60" opacity="0.4"/>
<rect x="375.6" y="1376.4" width="17.1" height="8.6" fill="#22503f" opacity="0.4"/>
<rect x="149.7" y="1676.2" width="50.7" height="12.7" fill="#3c7a60" opacity="0.4"/>
<rect x="806.9" y="1086.8" width="18.4" height="4.6" fill="#3c7a60" opacity="0.4"/>
<rect x="632.4" y="1077.2" width="8.9" height="4.5" fill="#22503f" opacity="0.4"/>
<rect x="310.2" y="1302.1" width="45.3" height="7.5" fill="#22503f" opacity="0.4"/>
<rect x="361.6" y="1173.2" width="23.1" height="5.8" fill="#3c7a60" opacity="0.4"/>
<rect x="458" y="1338.3" width="16.1" height="8" fill="#22503f" opacity="0.4"/>
<rect x="614.2" y="1464.5" width="19.5" height="9.8" fill="#22503f" opacity="0.4"/>
<rect x="1002.1" y="1641.8" width="24.4" height="12.2" fill="#22503f" opacity="0.4"/>
<rect x="324.3" y="1768.9" width="83.6" height="13.9" fill="#22503f" opacity="0.4"/>
<rect x="615.8" y="1684.6" width="76.7" height="12.8" fill="#22503f" opacity="0.4"/>
<rect x="529.7" y="1222.2" width="12.9" height="6.5" fill="#22503f" opacity="0.4"/>
<rect x="400.5" y="1393.6" width="52.8" height="8.8" fill="#3c7a60" opacity="0.4"/>
<rect x="735" y="1701.4" width="26" height="13" fill="#3c7a60" opacity="0.4"/>
<rect x="544.2" y="1794.2" width="85.7" height="14.3" fill="#3c7a60" opacity="0.4"/>
<rect x="46.7" y="1181.3" width="11.8" height="5.9" fill="#3c7a60" opacity="0.4"/>
<rect x="1" y="1447.5" width="19.1" height="9.5" fill="#22503f" opacity="0.4"/>
<rect x="318" y="1852" width="30.1" height="15.1" fill="#3c7a60" opacity="0.4"/>
<rect x="345.2" y="1714.2" width="52.7" height="13.2" fill="#22503f" opacity="0.4"/>
<rect x="337.3" y="1359.7" width="33.3" height="8.3" fill="#3c7a60" opacity="0.4"/>
<rect x="400.7" y="1891.1" width="93.6" height="15.6" fill="#22503f" opacity="0.4"/>
<rect x="315.5" y="1137.3" width="21.2" height="5.3" fill="#22503f" opacity="0.4"/>
<rect x="667.1" y="1702.3" width="26" height="13" fill="#22503f" opacity="0.4"/>
<rect x="191.6" y="1311.8" width="15.4" height="7.7" fill="#3c7a60" opacity="0.4"/>
<rect x="918.8" y="1438.5" width="37.6" height="9.4" fill="#22503f" opacity="0.4"/>
<rect x="12.4" y="1528" width="42.5" height="10.6" fill="#3c7a60" opacity="0.4"/>
<rect x="825.5" y="1363.6" width="16.8" height="8.4" fill="#3c7a60" opacity="0.4"/>
<rect x="493.9" y="1360.9" width="50.1" height="8.3" fill="#3c7a60" opacity="0.4"/>
<rect x="60.4" y="1244.2" width="27" height="6.8" fill="#22503f" opacity="0.4"/>
<rect x="666.4" y="1701" width="78" height="13" fill="#22503f" opacity="0.4"/>
<rect x="199.3" y="1030.4" width="7.7" height="3.8" fill="#3c7a60" opacity="0.4"/>
<rect x="616.2" y="1648.8" width="24.6" height="12.3" fill="#22503f" opacity="0.4"/>
<rect x="269.4" y="1155.8" width="11.1" height="5.5" fill="#3c7a60" opacity="0.4"/>
<rect x="635.5" y="1210" width="12.6" height="6.3" fill="#22503f" opacity="0.4"/>
<rect x="4.9" y="1714.2" width="52.7" height="13.2" fill="#3c7a60" opacity="0.4"/>
<rect x="59.8" y="1123.5" width="30.6" height="5.1" fill="#3c7a60" opacity="0.4"/>
<rect x="415.3" y="1349.8" width="32.8" height="8.2" fill="#22503f" opacity="0.4"/>
<clipPath id="bg03-night-trail"><path d="M520 966 L560 966 L760 1920 L330 1920 Z" fill="#000"/></clipPath>
<g filter="url(#bg03-night-blur-mid)"><path d="M520 966 L560 966 L760 1920 L330 1920 Z" fill="#45384a" opacity="0.85"/><g clip-path="url(#bg03-night-trail)"><rect x="486" y="1160" width="26" height="26" fill="#2f2636" opacity="0.7"/><rect x="408" y="1186" width="26" height="26" fill="#2f2636" opacity="0.7"/><rect x="616" y="1186" width="26" height="26" fill="#2f2636" opacity="0.7"/><rect x="512" y="1212" width="26" height="26" fill="#2f2636" opacity="0.7"/><rect x="616" y="1212" width="26" height="26" fill="#2f2636" opacity="0.7"/><rect x="694" y="1212" width="26" height="26" fill="#2f2636" opacity="0.7"/><rect x="382" y="1238" width="26" height="26" fill="#2f2636" opacity="0.7"/><rect x="434" y="1238" width="26" height="26" fill="#2f2636" opacity="0.7"/><rect x="460" y="1238" width="26" height="26" fill="#2f2636" opacity="0.7"/><rect x="564" y="1238" width="26" height="26" fill="#2f2636" opacity="0.7"/><rect x="616" y="1238" width="26" height="26" fill="#2f2636" opacity="0.7"/><rect x="408" y="1264" width="26" height="26" fill="#2f2636" opacity="0.7"/><rect x="460" y="1264" width="26" height="26" fill="#2f2636" opacity="0.7"/><rect x="616" y="1264" width="26" height="26" fill="#2f2636" opacity="0.7"/><rect x="694" y="1264" width="26" height="26" fill="#2f2636" opacity="0.7"/><rect x="720" y="1264" width="26" height="26" fill="#2f2636" opacity="0.7"/><rect x="564" y="1290" width="26" height="26" fill="#2f2636" opacity="0.7"/><rect x="720" y="1290" width="26" height="26" fill="#2f2636" opacity="0.7"/><rect x="356" y="1316" width="26" height="26" fill="#2f2636" opacity="0.7"/><rect x="382" y="1316" width="26" height="26" fill="#2f2636" opacity="0.7"/><rect x="616" y="1316" width="26" height="26" fill="#2f2636" opacity="0.7"/><rect x="642" y="1316" width="26" height="26" fill="#2f2636" opacity="0.7"/><rect x="486" y="1342" width="26" height="26" fill="#2f2636" opacity="0.7"/><rect x="512" y="1342" width="26" height="26" fill="#2f2636" opacity="0.7"/><rect x="590" y="1342" width="26" height="26" fill="#2f2636" opacity="0.7"/><rect x="356" y="1368" width="26" height="26" fill="#2f2636" opacity="0.7"/><rect x="434" y="1368" width="26" height="26" fill="#2f2636" opacity="0.7"/><rect x="564" y="1368" width="26" height="26" fill="#2f2636" opacity="0.7"/><rect x="642" y="1368" width="26" height="26" fill="#2f2636" opacity="0.7"/><rect x="668" y="1368" width="26" height="26" fill="#2f2636" opacity="0.7"/><rect x="694" y="1368" width="26" height="26" fill="#2f2636" opacity="0.7"/><rect x="486" y="1394" width="26" height="26" fill="#2f2636" opacity="0.7"/><rect x="642" y="1394" width="26" height="26" fill="#2f2636" opacity="0.7"/><rect x="668" y="1394" width="26" height="26" fill="#2f2636" opacity="0.7"/><rect x="434" y="1420" width="26" height="26" fill="#2f2636" opacity="0.7"/><rect x="460" y="1420" width="26" height="26" fill="#2f2636" opacity="0.7"/><rect x="590" y="1420" width="26" height="26" fill="#2f2636" opacity="0.7"/><rect x="642" y="1420" width="26" height="26" fill="#2f2636" opacity="0.7"/><rect x="694" y="1420" width="26" height="26" fill="#2f2636" opacity="0.7"/><rect x="434" y="1446" width="26" height="26" fill="#2f2636" opacity="0.7"/><rect x="460" y="1446" width="26" height="26" fill="#2f2636" opacity="0.7"/><rect x="538" y="1446" width="26" height="26" fill="#2f2636" opacity="0.7"/><rect x="720" y="1446" width="26" height="26" fill="#2f2636" opacity="0.7"/><rect x="330" y="1472" width="26" height="26" fill="#2f2636" opacity="0.7"/><rect x="356" y="1472" width="26" height="26" fill="#2f2636" opacity="0.7"/><rect x="460" y="1472" width="26" height="26" fill="#2f2636" opacity="0.7"/><rect x="512" y="1472" width="26" height="26" fill="#2f2636" opacity="0.7"/><rect x="538" y="1472" width="26" height="26" fill="#2f2636" opacity="0.7"/><rect x="356" y="1498" width="26" height="26" fill="#2f2636" opacity="0.7"/><rect x="460" y="1498" width="26" height="26" fill="#2f2636" opacity="0.7"/><rect x="486" y="1498" width="26" height="26" fill="#2f2636" opacity="0.7"/><rect x="590" y="1498" width="26" height="26" fill="#2f2636" opacity="0.7"/><rect x="356" y="1524" width="26" height="26" fill="#2f2636" opacity="0.7"/><rect x="382" y="1524" width="26" height="26" fill="#2f2636" opacity="0.7"/><rect x="434" y="1524" width="26" height="26" fill="#2f2636" opacity="0.7"/><rect x="460" y="1524" width="26" height="26" fill="#2f2636" opacity="0.7"/><rect x="486" y="1524" width="26" height="26" fill="#2f2636" opacity="0.7"/><rect x="590" y="1524" width="26" height="26" fill="#2f2636" opacity="0.7"/><rect x="590" y="1550" width="26" height="26" fill="#2f2636" opacity="0.7"/><rect x="668" y="1550" width="26" height="26" fill="#2f2636" opacity="0.7"/><rect x="434" y="1576" width="26" height="26" fill="#2f2636" opacity="0.7"/><rect x="694" y="1576" width="26" height="26" fill="#2f2636" opacity="0.7"/><rect x="642" y="1602" width="26" height="26" fill="#2f2636" opacity="0.7"/><rect x="694" y="1602" width="26" height="26" fill="#2f2636" opacity="0.7"/><rect x="538" y="1628" width="26" height="26" fill="#2f2636" opacity="0.7"/><rect x="720" y="1628" width="26" height="26" fill="#2f2636" opacity="0.7"/><rect x="616" y="1654" width="26" height="26" fill="#2f2636" opacity="0.7"/><rect x="694" y="1654" width="26" height="26" fill="#2f2636" opacity="0.7"/><rect x="356" y="1680" width="26" height="26" fill="#2f2636" opacity="0.7"/><rect x="382" y="1680" width="26" height="26" fill="#2f2636" opacity="0.7"/><rect x="512" y="1680" width="26" height="26" fill="#2f2636" opacity="0.7"/><rect x="382" y="1706" width="26" height="26" fill="#2f2636" opacity="0.7"/><rect x="486" y="1706" width="26" height="26" fill="#2f2636" opacity="0.7"/><rect x="590" y="1706" width="26" height="26" fill="#2f2636" opacity="0.7"/><rect x="330" y="1732" width="26" height="26" fill="#2f2636" opacity="0.7"/><rect x="356" y="1732" width="26" height="26" fill="#2f2636" opacity="0.7"/><rect x="408" y="1732" width="26" height="26" fill="#2f2636" opacity="0.7"/><rect x="460" y="1732" width="26" height="26" fill="#2f2636" opacity="0.7"/><rect x="486" y="1732" width="26" height="26" fill="#2f2636" opacity="0.7"/><rect x="512" y="1732" width="26" height="26" fill="#2f2636" opacity="0.7"/><rect x="564" y="1732" width="26" height="26" fill="#2f2636" opacity="0.7"/><rect x="616" y="1732" width="26" height="26" fill="#2f2636" opacity="0.7"/><rect x="694" y="1732" width="26" height="26" fill="#2f2636" opacity="0.7"/><rect x="512" y="1784" width="26" height="26" fill="#2f2636" opacity="0.7"/><rect x="616" y="1784" width="26" height="26" fill="#2f2636" opacity="0.7"/><rect x="642" y="1784" width="26" height="26" fill="#2f2636" opacity="0.7"/><rect x="668" y="1784" width="26" height="26" fill="#2f2636" opacity="0.7"/><rect x="408" y="1810" width="26" height="26" fill="#2f2636" opacity="0.7"/><rect x="408" y="1836" width="26" height="26" fill="#2f2636" opacity="0.7"/><rect x="512" y="1862" width="26" height="26" fill="#2f2636" opacity="0.7"/><rect x="486" y="1888" width="26" height="26" fill="#2f2636" opacity="0.7"/></g></g>
<g filter="url(#bg03-night-ink)"><rect x="60" y="1064" width="105.6" height="66" fill="#1d4a3d"/><rect x="79.8" y="1034.3" width="66" height="33" fill="#1d4a3d"/><rect x="93" y="1064" width="11" height="11" fill="#2f6a58" opacity="0.7"/><rect x="115" y="1064" width="11" height="11" fill="#2f6a58" opacity="0.7"/><rect x="148" y="1064" width="11" height="11" fill="#2f6a58" opacity="0.7"/><rect x="93" y="1086" width="11" height="11" fill="#2f6a58" opacity="0.7"/><rect x="126" y="1086" width="11" height="11" fill="#2f6a58" opacity="0.7"/><rect x="148" y="1086" width="11" height="11" fill="#2f6a58" opacity="0.7"/><rect x="93" y="1108" width="11" height="11" fill="#2f6a58" opacity="0.7"/><rect x="115" y="1108" width="11" height="11" fill="#2f6a58" opacity="0.7"/><rect x="137" y="1108" width="11" height="11" fill="#2f6a58" opacity="0.7"/><rect x="115" y="1119" width="11" height="11" fill="#2f6a58" opacity="0.7"/><rect x="60" y="1106.9" width="105.6" height="23.1" fill="#12342b" opacity="0.5"/><rect x="900" y="1030" width="80" height="50" fill="#1d4a3d"/><rect x="915" y="1007.5" width="50" height="25" fill="#1d4a3d"/><rect x="925" y="1030" width="8.3" height="8.3" fill="#2f6a58" opacity="0.7"/><rect x="933.3" y="1030" width="8.3" height="8.3" fill="#2f6a58" opacity="0.7"/><rect x="958.3" y="1030" width="8.3" height="8.3" fill="#2f6a58" opacity="0.7"/><rect x="900" y="1046.7" width="8.3" height="8.3" fill="#2f6a58" opacity="0.7"/><rect x="958.3" y="1046.7" width="8.3" height="8.3" fill="#2f6a58" opacity="0.7"/><rect x="925" y="1055" width="8.3" height="8.3" fill="#2f6a58" opacity="0.7"/><rect x="941.7" y="1055" width="8.3" height="8.3" fill="#2f6a58" opacity="0.7"/><rect x="908.3" y="1063.3" width="8.3" height="8.3" fill="#2f6a58" opacity="0.7"/><rect x="900" y="1062.5" width="80" height="17.5" fill="#12342b" opacity="0.5"/></g>
<rect x="1.9" y="1038" width="2.5" height="10" fill="#22503f"/>
<rect x="4.4" y="1038" width="2.5" height="10" fill="#3c7a60"/>
<rect x="6.9" y="1035.5" width="2.5" height="12.5" fill="#22503f"/>
<rect x="9.4" y="1035.5" width="2.5" height="12.5" fill="#3c7a60"/>
<rect x="11.9" y="1035.5" width="2.5" height="12.5" fill="#22503f"/>
<rect x="922.5" y="1844.2" width="8.7" height="34.8" fill="#22503f"/>
<rect x="913.9" y="1826.8" width="26.1" height="17.4" fill="#7e2a46"/>
<rect x="922.5" y="1818.1" width="8.7" height="8.7" fill="#7e2a46"/>
<rect x="922.5" y="1831.1" width="8.7" height="8.7" fill="#2a1a1a"/>
<rect x="62" y="1800.3" width="8.3" height="24.9" fill="#22503f"/>
<rect x="70.3" y="1800.3" width="8.3" height="24.9" fill="#3c7a60"/>
<rect x="78.6" y="1783.7" width="8.3" height="41.5" fill="#22503f"/>
<rect x="86.8" y="1783.7" width="8.3" height="41.5" fill="#3c7a60"/>
<rect x="95.1" y="1775.4" width="8.3" height="49.8" fill="#22503f"/>
<rect x="225" y="1644.1" width="7.2" height="28.6" fill="#22503f"/>
<rect x="217.9" y="1629.8" width="21.5" height="14.3" fill="#9c9450"/>
<rect x="225" y="1622.6" width="7.2" height="7.2" fill="#9c9450"/>
<rect x="70.9" y="1633.2" width="7" height="21.1" fill="#22503f"/>
<rect x="78" y="1612.1" width="7" height="42.1" fill="#3c7a60"/>
<rect x="85" y="1626.2" width="7" height="28.1" fill="#22503f"/>
<rect x="92" y="1612.1" width="7" height="42.1" fill="#3c7a60"/>
<rect x="99" y="1612.1" width="7" height="42.1" fill="#22503f"/>
<rect x="24.7" y="1019.4" width="2.4" height="14.4" fill="#22503f"/>
<rect x="27.1" y="1026.6" width="2.4" height="7.2" fill="#3c7a60"/>
<rect x="29.5" y="1019.4" width="2.4" height="14.4" fill="#22503f"/>
<rect x="31.9" y="1021.8" width="2.4" height="12" fill="#3c7a60"/>
<rect x="34.3" y="1021.8" width="2.4" height="12" fill="#22503f"/>
<rect x="1029.7" y="1664" width="7.4" height="44.6" fill="#22503f"/>
<rect x="1037.1" y="1664" width="7.4" height="44.6" fill="#3c7a60"/>
<rect x="1044.5" y="1664" width="7.4" height="44.6" fill="#22503f"/>
<rect x="1052" y="1671.5" width="7.4" height="37.1" fill="#3c7a60"/>
<rect x="1059.4" y="1678.9" width="7.4" height="29.7" fill="#22503f"/>
<rect x="161.9" y="1163.2" width="3.5" height="13.9" fill="#22503f"/>
<rect x="158.4" y="1156.3" width="10.4" height="6.9" fill="#7e2a46"/>
<rect x="161.9" y="1152.8" width="3.5" height="3.5" fill="#7e2a46"/>
<rect x="161.9" y="1158" width="3.5" height="3.5" fill="#2a1a1a"/>
<rect x="216.7" y="1353.7" width="5" height="24.8" fill="#22503f"/>
<rect x="221.7" y="1363.7" width="5" height="14.9" fill="#3c7a60"/>
<rect x="226.6" y="1363.7" width="5" height="14.9" fill="#22503f"/>
<rect x="231.6" y="1353.7" width="5" height="24.8" fill="#3c7a60"/>
<rect x="236.6" y="1363.7" width="5" height="14.9" fill="#22503f"/>
<rect x="919.5" y="998.5" width="2.2" height="8.8" fill="#22503f"/>
<rect x="917.3" y="994" width="6.6" height="4.4" fill="#7e2a46"/>
<rect x="919.5" y="991.8" width="2.2" height="2.2" fill="#7e2a46"/>
<rect x="919.5" y="995.1" width="2.2" height="2.2" fill="#2a1a1a"/>
<rect x="301.5" y="1452.4" width="5.6" height="16.9" fill="#22503f"/>
<rect x="307.2" y="1441.1" width="5.6" height="28.2" fill="#3c7a60"/>
<rect x="312.8" y="1441.1" width="5.6" height="28.2" fill="#22503f"/>
<rect x="318.5" y="1441.1" width="5.6" height="28.2" fill="#3c7a60"/>
<rect x="324.1" y="1446.7" width="5.6" height="22.6" fill="#22503f"/>
<rect x="291.9" y="979.1" width="2.1" height="10.4" fill="#22503f"/>
<rect x="293.9" y="979.1" width="2.1" height="10.4" fill="#3c7a60"/>
<rect x="296" y="979.1" width="2.1" height="10.4" fill="#22503f"/>
<rect x="298.1" y="983.2" width="2.1" height="6.2" fill="#3c7a60"/>
<rect x="300.2" y="983.2" width="2.1" height="6.2" fill="#22503f"/>
<rect x="1043.6" y="1272.4" width="4.3" height="17.2" fill="#22503f"/>
<rect x="1039.3" y="1263.8" width="12.9" height="8.6" fill="#7e2a46"/>
<rect x="1043.6" y="1259.5" width="4.3" height="4.3" fill="#7e2a46"/>
<rect x="1043.6" y="1265.9" width="4.3" height="4.3" fill="#2a1a1a"/>
<rect x="150.6" y="1411.4" width="5.5" height="32.7" fill="#22503f"/>
<rect x="156" y="1411.4" width="5.5" height="32.7" fill="#3c7a60"/>
<rect x="161.5" y="1411.4" width="5.5" height="32.7" fill="#22503f"/>
<rect x="166.9" y="1422.3" width="5.5" height="21.8" fill="#3c7a60"/>
<rect x="172.4" y="1422.3" width="5.5" height="21.8" fill="#22503f"/>
<rect x="100.6" y="1742" width="7.9" height="31.6" fill="#22503f"/>
<rect x="92.7" y="1726.2" width="23.7" height="15.8" fill="#7e2a46"/>
<rect x="100.6" y="1718.3" width="7.9" height="7.9" fill="#7e2a46"/>
<rect x="100.6" y="1730.1" width="7.9" height="7.9" fill="#2a1a1a"/>
<rect x="955.8" y="1680.5" width="7.5" height="37.5" fill="#22503f"/>
<rect x="963.3" y="1695.5" width="7.5" height="22.5" fill="#3c7a60"/>
<rect x="970.8" y="1695.5" width="7.5" height="22.5" fill="#22503f"/>
<rect x="978.3" y="1680.5" width="7.5" height="37.5" fill="#3c7a60"/>
<rect x="985.8" y="1695.5" width="7.5" height="22.5" fill="#22503f"/>
<rect x="848.4" y="1855.1" width="8.8" height="44.2" fill="#22503f"/>
<rect x="857.2" y="1864" width="8.8" height="35.4" fill="#3c7a60"/>
<rect x="866.1" y="1872.8" width="8.8" height="26.5" fill="#22503f"/>
<rect x="874.9" y="1846.3" width="8.8" height="53.1" fill="#3c7a60"/>
<rect x="883.8" y="1864" width="8.8" height="35.4" fill="#22503f"/>
<rect x="805.1" y="1613.4" width="6.9" height="20.6" fill="#22503f"/>
<rect x="811.9" y="1613.4" width="6.9" height="20.6" fill="#3c7a60"/>
<rect x="818.8" y="1592.8" width="6.9" height="41.2" fill="#22503f"/>
<rect x="825.7" y="1613.4" width="6.9" height="20.6" fill="#3c7a60"/>
<rect x="832.5" y="1592.8" width="6.9" height="41.2" fill="#22503f"/>
<rect x="821.8" y="1225" width="3.9" height="15.8" fill="#22503f"/>
<rect x="817.9" y="1217.1" width="11.8" height="7.9" fill="#9c9450"/>
<rect x="821.8" y="1213.2" width="3.9" height="3.9" fill="#9c9450"/>
<rect x="1039.5" y="1550.1" width="6.5" height="32.4" fill="#22503f"/>
<rect x="1045.9" y="1556.6" width="6.5" height="25.9" fill="#3c7a60"/>
<rect x="1052.4" y="1543.6" width="6.5" height="38.9" fill="#22503f"/>
<rect x="1058.9" y="1563.1" width="6.5" height="19.5" fill="#3c7a60"/>
<rect x="1065.4" y="1563.1" width="6.5" height="19.5" fill="#22503f"/>
<rect x="947.1" y="1304.3" width="4.6" height="18.2" fill="#22503f"/>
<rect x="951.7" y="1308.9" width="4.6" height="13.7" fill="#3c7a60"/>
<rect x="956.2" y="1299.8" width="4.6" height="22.8" fill="#22503f"/>
<rect x="960.8" y="1295.2" width="4.6" height="27.3" fill="#3c7a60"/>
<rect x="965.3" y="1308.9" width="4.6" height="13.7" fill="#22503f"/>
<rect x="933.1" y="1510.5" width="6.1" height="24.5" fill="#22503f"/>
<rect x="927" y="1498.2" width="18.4" height="12.3" fill="#7e2a46"/>
<rect x="933.1" y="1492.1" width="6.1" height="6.1" fill="#7e2a46"/>
<rect x="933.1" y="1501.3" width="6.1" height="6.1" fill="#2a1a1a"/>
<rect x="57.4" y="1508.1" width="6.1" height="24.5" fill="#22503f"/>
<rect x="51.3" y="1495.9" width="18.3" height="12.2" fill="#9c9450"/>
<rect x="57.4" y="1489.8" width="6.1" height="6.1" fill="#9c9450"/>
<rect x="233.6" y="1173.8" width="3.6" height="21.6" fill="#22503f"/>
<rect x="237.2" y="1173.8" width="3.6" height="21.6" fill="#3c7a60"/>
<rect x="240.8" y="1173.8" width="3.6" height="21.6" fill="#22503f"/>
<rect x="244.4" y="1173.8" width="3.6" height="21.6" fill="#3c7a60"/>
<rect x="248" y="1177.4" width="3.6" height="18" fill="#22503f"/>
<rect x="329.9" y="1225.3" width="4" height="19.9" fill="#22503f"/>
<rect x="333.8" y="1233.3" width="4" height="11.9" fill="#3c7a60"/>
<rect x="337.8" y="1229.3" width="4" height="15.9" fill="#22503f"/>
<rect x="341.8" y="1233.3" width="4" height="11.9" fill="#3c7a60"/>
<rect x="345.8" y="1221.4" width="4" height="23.8" fill="#22503f"/>
<rect x="823.3" y="1020.5" width="2.4" height="9.5" fill="#22503f"/>
<rect x="820.9" y="1015.8" width="7.1" height="4.7" fill="#9c9450"/>
<rect x="823.3" y="1013.4" width="2.4" height="2.4" fill="#9c9450"/>
<rect x="961.2" y="1394.2" width="5.2" height="21" fill="#22503f"/>
<rect x="966.5" y="1389" width="5.2" height="26.2" fill="#3c7a60"/>
<rect x="971.7" y="1399.4" width="5.2" height="15.7" fill="#22503f"/>
<rect x="977" y="1389" width="5.2" height="26.2" fill="#3c7a60"/>
<rect x="982.2" y="1399.4" width="5.2" height="15.7" fill="#22503f"/>
<rect x="1019.9" y="1050.5" width="2.6" height="7.7" fill="#22503f"/>
<rect x="1022.5" y="1045.4" width="2.6" height="12.9" fill="#3c7a60"/>
<rect x="1025.1" y="1050.5" width="2.6" height="7.7" fill="#22503f"/>
<rect x="1027.7" y="1050.5" width="2.6" height="7.7" fill="#3c7a60"/>
<rect x="1030.3" y="1048" width="2.6" height="10.3" fill="#22503f"/>
<rect x="828.1" y="1505.2" width="6.1" height="30.7" fill="#22503f"/>
<rect x="834.2" y="1505.2" width="6.1" height="30.7" fill="#3c7a60"/>
<rect x="840.4" y="1511.4" width="6.1" height="24.6" fill="#22503f"/>
<rect x="846.5" y="1499.1" width="6.1" height="36.8" fill="#3c7a60"/>
<rect x="852.6" y="1499.1" width="6.1" height="36.8" fill="#22503f"/>
<rect x="903" y="1684.8" width="7.6" height="45.5" fill="#22503f"/>
<rect x="910.6" y="1707.6" width="7.6" height="22.8" fill="#3c7a60"/>
<rect x="918.2" y="1692.4" width="7.6" height="37.9" fill="#22503f"/>
<rect x="925.8" y="1700" width="7.6" height="30.4" fill="#3c7a60"/>
<rect x="933.4" y="1700" width="7.6" height="30.4" fill="#22503f"/>
<rect x="858.3" y="1543.1" width="6.4" height="25.5" fill="#22503f"/>
<rect x="851.9" y="1530.4" width="19.2" height="12.8" fill="#9c9450"/>
<rect x="858.3" y="1524" width="6.4" height="6.4" fill="#9c9450"/>
<rect x="1049.7" y="1631.5" width="7.1" height="28.2" fill="#22503f"/>
<rect x="1042.6" y="1617.4" width="21.2" height="14.1" fill="#7e2a46"/>
<rect x="1049.7" y="1610.3" width="7.1" height="7.1" fill="#7e2a46"/>
<rect x="1049.7" y="1620.9" width="7.1" height="7.1" fill="#2a1a1a"/>
<rect x="929.3" y="1225.3" width="3.9" height="15.8" fill="#22503f"/>
<rect x="925.4" y="1217.4" width="11.8" height="7.9" fill="#7e2a46"/>
<rect x="929.3" y="1213.5" width="3.9" height="3.9" fill="#7e2a46"/>
<rect x="929.3" y="1219.4" width="3.9" height="3.9" fill="#2a1a1a"/>
<rect x="147.5" y="1537.4" width="6.4" height="31.9" fill="#22503f"/>
<rect x="153.9" y="1543.8" width="6.4" height="25.6" fill="#3c7a60"/>
<rect x="160.3" y="1537.4" width="6.4" height="31.9" fill="#22503f"/>
<rect x="166.7" y="1531.1" width="6.4" height="38.3" fill="#3c7a60"/>
<rect x="173" y="1537.4" width="6.4" height="31.9" fill="#22503f"/>
<rect x="827.3" y="1331.5" width="4.8" height="24" fill="#22503f"/>
<rect x="832.1" y="1341.1" width="4.8" height="14.4" fill="#3c7a60"/>
<rect x="836.9" y="1336.3" width="4.8" height="19.2" fill="#22503f"/>
<rect x="841.7" y="1326.7" width="4.8" height="28.8" fill="#3c7a60"/>
<rect x="846.5" y="1336.3" width="4.8" height="19.2" fill="#22503f"/>
<rect x="121.8" y="987.7" width="2.1" height="10.7" fill="#22503f"/>
<rect x="123.9" y="987.7" width="2.1" height="10.7" fill="#3c7a60"/>
<rect x="126" y="987.7" width="2.1" height="10.7" fill="#22503f"/>
<rect x="128.2" y="987.7" width="2.1" height="10.7" fill="#3c7a60"/>
<rect x="130.3" y="985.5" width="2.1" height="12.8" fill="#22503f"/>
<rect x="824.7" y="1811.1" width="8.4" height="25.1" fill="#22503f"/>
<rect x="833.1" y="1786" width="8.4" height="50.3" fill="#3c7a60"/>
<rect x="841.5" y="1794.4" width="8.4" height="41.9" fill="#22503f"/>
<rect x="849.8" y="1811.1" width="8.4" height="25.1" fill="#3c7a60"/>
<rect x="858.2" y="1802.7" width="8.4" height="33.5" fill="#22503f"/>
<rect x="872.6" y="1764.8" width="8.1" height="32.3" fill="#22503f"/>
<rect x="864.6" y="1748.7" width="24.3" height="16.2" fill="#9c9450"/>
<rect x="872.6" y="1740.6" width="8.1" height="8.1" fill="#9c9450"/>
<rect x="98" y="1187.3" width="3.7" height="14.6" fill="#22503f"/>
<rect x="94.3" y="1180" width="11" height="7.3" fill="#9c9450"/>
<rect x="98" y="1176.4" width="3.7" height="3.7" fill="#9c9450"/>
<rect x="906.5" y="1678" width="7.4" height="22.1" fill="#22503f"/>
<rect x="913.9" y="1663.3" width="7.4" height="36.8" fill="#3c7a60"/>
<rect x="921.2" y="1670.6" width="7.4" height="29.4" fill="#22503f"/>
<rect x="928.6" y="1678" width="7.4" height="22.1" fill="#3c7a60"/>
<rect x="936" y="1670.6" width="7.4" height="29.4" fill="#22503f"/>
<rect x="990.3" y="1844.2" width="8.8" height="43.8" fill="#22503f"/>
<rect x="999.1" y="1835.4" width="8.8" height="52.6" fill="#3c7a60"/>
<rect x="1007.8" y="1852.9" width="8.8" height="35" fill="#22503f"/>
<rect x="1016.6" y="1852.9" width="8.8" height="35" fill="#3c7a60"/>
<rect x="1025.3" y="1844.2" width="8.8" height="43.8" fill="#22503f"/>
</g>
<g id="props">

</g>
<g id="near">
<g filter="url(#bg03-night-blur-dof)"><rect x="784.7" y="1683.8" width="22" height="286.2" fill="#2e6650"/><rect x="806.7" y="1782.3" width="22" height="187.7" fill="#2e6650"/><rect x="518" y="1746.5" width="22" height="223.5" fill="#3c7a60"/><rect x="540" y="1819.9" width="22" height="150.1" fill="#3c7a60"/><rect x="330.4" y="1798.5" width="22" height="171.5" fill="#22503f"/><rect x="352.4" y="1851.1" width="22" height="118.9" fill="#22503f"/><rect x="919.6" y="1709.3" width="22" height="260.7" fill="#22503f"/><rect x="941.6" y="1797.6" width="22" height="172.4" fill="#22503f"/><rect x="649.5" y="1742.8" width="22" height="227.2" fill="#3c7a60"/><rect x="671.5" y="1817.7" width="22" height="152.3" fill="#3c7a60"/><rect x="267.5" y="1755.2" width="22" height="214.8" fill="#3c7a60"/><rect x="289.5" y="1825.1" width="22" height="144.9" fill="#3c7a60"/><rect x="343.2" y="1794.9" width="22" height="175.1" fill="#3c7a60"/><rect x="365.2" y="1848.9" width="22" height="121.1" fill="#3c7a60"/><rect x="1012.4" y="1823" width="22" height="147" fill="#2e6650"/><rect x="1034.4" y="1865.8" width="22" height="104.2" fill="#2e6650"/><rect x="144.3" y="1750" width="22" height="220" fill="#3c7a60"/><rect x="166.3" y="1822" width="22" height="148" fill="#3c7a60"/><rect x="300.9" y="1812.8" width="22" height="157.2" fill="#2e6650"/><rect x="322.9" y="1859.7" width="22" height="110.3" fill="#2e6650"/></g>
</g>
<g id="fx">
<rect x="0" y="0" width="1080" height="1920" fill="#1a2a6a" opacity="0.12"/>
<rect x="0" y="0" width="1080" height="1920" fill="url(#bg03-night-vig)"/>
</g>
</svg>
