<svg xmlns="http://www.w3.org/2000/svg" viewBox="0 0 1080 1920" width="1080" height="1920">
<title>bg07-water-level — morning: ближний план</title>
<defs>
<linearGradient id="bg07-morning-sky" x1="0" y1="0" x2="0" y2="1"><stop offset="0" stop-color="#4e9ce8"/><stop offset="0.6" stop-color="#8ccaf6"/><stop offset="1" stop-color="#d8f2ff"/></linearGradient>
<radialGradient id="bg07-morning-vig" cx="0.5" cy="0.46" r="0.78">
  <stop offset="0.55" stop-color="#10202a" stop-opacity="0"/>
  <stop offset="1" stop-color="#10202a" stop-opacity="0.22"/>
</radialGradient>
<filter id="bg07-morning-ink" x="-5%" y="-5%" width="110%" height="110%" color-interpolation-filters="sRGB">
  <feMorphology in="SourceAlpha" operator="dilate" radius="3.3" result="d"/>
  <feFlood flood-color="#1c1b1f" result="c"/>
  <feComposite in="c" in2="d" operator="in" result="o"/>
  <feMerge result="m"><feMergeNode in="o"/><feMergeNode in="SourceGraphic"/></feMerge>
  <feTurbulence type="fractalNoise" baseFrequency="0.022" numOctaves="2" seed="5" result="t"/>
  <feDisplacementMap in="m" in2="t" scale="4" xChannelSelector="R" yChannelSelector="G"/>
</filter>
<filter id="bg07-morning-ink-soft" x="-5%" y="-5%" width="110%" height="110%" color-interpolation-filters="sRGB">
  <feMorphology in="SourceAlpha" operator="dilate" radius="1.6" result="d"/>
  <feFlood flood-color="#1c1b1f" flood-opacity="0.55" result="c"/>
  <feComposite in="c" in2="d" operator="in" result="o"/>
  <feMerge><feMergeNode in="o"/><feMergeNode in="SourceGraphic"/></feMerge>
</filter>
<filter id="bg07-morning-blur-far" x="-5%" y="-5%" width="110%" height="110%"><feGaussianBlur stdDeviation="4.5"/></filter>
<filter id="bg07-morning-blur-mid" x="-5%" y="-5%" width="110%" height="110%"><feGaussianBlur stdDeviation="1.8"/></filter>
<filter id="bg07-morning-blur-dof" x="-5%" y="-5%" width="110%" height="110%"><feGaussianBlur stdDeviation="11"/></filter>
<filter id="bg07-morning-glow" x="-60%" y="-60%" width="220%" height="220%"><feGaussianBlur stdDeviation="28"/></filter>
<filter id="bg07-morning-soft" x="-30%" y="-30%" width="160%" height="160%"><feGaussianBlur stdDeviation="8"/></filter>
<filter id="bg07-morning-blur-soft" x="-30%" y="-30%" width="160%" height="160%"><feGaussianBlur stdDeviation="14"/></filter>
<linearGradient id="bg07-morning-ground" x1="0" y1="1180" x2="0" y2="1920" gradientUnits="userSpaceOnUse"><stop offset="0" stop-color="#a8d890"/><stop offset="0.18" stop-color="#6cc04a"/><stop offset="1" stop-color="#56a43a"/></linearGradient><linearGradient id="bg07-morning-water" x1="0" y1="1326" x2="0" y2="1920" gradientUnits="userSpaceOnUse"><stop offset="0" stop-color="#9cd0ff"/><stop offset="0.35" stop-color="#3a78d8"/><stop offset="1" stop-color="#2858b0"/></linearGradient></defs>
<g id="near">
<g><rect x="0" y="1326" width="1080" height="594" fill="url(#bg07-morning-water)"/><rect x="377.5" y="1412.3" width="25" height="8" fill="#78b4f6" opacity="0.7"/><rect x="747.8" y="1472.1" width="32.7" height="10.5" fill="#78b4f6" opacity="0.7"/><rect x="216.6" y="1534.4" width="122" height="13" fill="#2858b0" opacity="0.7"/><rect x="186.5" y="1752.1" width="137" height="21.9" fill="#2858b0" opacity="0.7"/><rect x="99.3" y="1693.4" width="61" height="19.5" fill="#2858b0" opacity="0.7"/><rect x="524.9" y="1789.2" width="219.8" height="23.4" fill="#2858b0" opacity="0.7"/><rect x="1062" y="1753" width="205.9" height="22" fill="#78b4f6" opacity="0.7"/><rect x="494.2" y="1862.1" width="247.8" height="26.4" fill="#78b4f6" opacity="0.7"/><rect x="434.3" y="1468.7" width="64.5" height="10.3" fill="#78b4f6" opacity="0.7"/><rect x="345.3" y="1916.8" width="179.2" height="28.7" fill="#78b4f6" opacity="0.7"/><rect x="630.7" y="1363.7" width="56.5" height="6" fill="#2858b0" opacity="0.7"/><rect x="159.3" y="1876.1" width="84.4" height="27" fill="#2858b0" opacity="0.7"/><rect x="834.5" y="1529.2" width="40" height="12.8" fill="#78b4f6" opacity="0.7"/><rect x="541.2" y="1904" width="263.9" height="28.1" fill="#78b4f6" opacity="0.7"/><rect x="850.5" y="1688.9" width="120.9" height="19.3" fill="#78b4f6" opacity="0.7"/><rect x="1050.2" y="1872" width="167.7" height="26.8" fill="#78b4f6" opacity="0.7"/><rect x="976.8" y="1713" width="63.5" height="20.3" fill="#78b4f6" opacity="0.7"/><rect x="473.6" y="1564.9" width="44.6" height="14.3" fill="#78b4f6" opacity="0.7"/><rect x="267.9" y="1544.3" width="125.8" height="13.4" fill="#78b4f6" opacity="0.7"/><rect x="781.9" y="1770.7" width="141.8" height="22.7" fill="#78b4f6" opacity="0.7"/><rect x="55.8" y="1645.9" width="109.9" height="17.6" fill="#78b4f6" opacity="0.7"/><rect x="1068.2" y="1617" width="51.2" height="16.4" fill="#2858b0" opacity="0.7"/><rect x="133.8" y="1740" width="67" height="21.4" fill="#2858b0" opacity="0.7"/><rect x="488" y="1582.1" width="46.8" height="15" fill="#78b4f6" opacity="0.7"/><rect x="274.5" y="1874.4" width="84.2" height="26.9" fill="#78b4f6" opacity="0.7"/><rect x="637" y="1390.3" width="44.4" height="7.1" fill="#78b4f6" opacity="0.7"/><rect x="1072.2" y="1789.2" width="73.3" height="23.4" fill="#2858b0" opacity="0.7"/><rect x="718.8" y="1728.8" width="196.6" height="21" fill="#2858b0" opacity="0.7"/><rect x="878.2" y="1516.5" width="76.7" height="12.3" fill="#2858b0" opacity="0.7"/><rect x="313.7" y="1625.7" width="52.4" height="16.8" fill="#2858b0" opacity="0.7"/><rect x="810" y="1769.9" width="70.8" height="22.7" fill="#78b4f6" opacity="0.7"/><rect x="1010.1" y="1640.1" width="108.4" height="17.3" fill="#2858b0" opacity="0.7"/><rect x="150.2" y="1644.5" width="109.5" height="17.5" fill="#2858b0" opacity="0.7"/><rect x="810.2" y="1716.7" width="64" height="20.5" fill="#2858b0" opacity="0.7"/><rect x="501.5" y="1753.6" width="206.1" height="22" fill="#2858b0" opacity="0.7"/><rect x="1071.4" y="1708.3" width="125.8" height="20.1" fill="#2858b0" opacity="0.7"/><rect x="150.2" y="1693.8" width="61.1" height="19.5" fill="#2858b0" opacity="0.7"/><rect x="210.5" y="1414.5" width="25.3" height="8.1" fill="#2858b0" opacity="0.7"/><rect x="710.1" y="1821.2" width="232.1" height="24.8" fill="#78b4f6" opacity="0.7"/><rect x="215.6" y="1509.7" width="37.5" height="12" fill="#2858b0" opacity="0.7"/><rect x="363" y="1561.6" width="44.1" height="14.1" fill="#78b4f6" opacity="0.7"/><rect x="243" y="1767.4" width="141" height="22.6" fill="#78b4f6" opacity="0.7"/><rect x="545.9" y="1513" width="75.8" height="12.1" fill="#2858b0" opacity="0.7"/><rect x="694.9" y="1895" width="86.8" height="27.8" fill="#2858b0" opacity="0.7"/><rect x="645.4" y="1697" width="61.5" height="19.7" fill="#2858b0" opacity="0.7"/><rect x="388.7" y="1432.4" width="27.6" height="8.8" fill="#2858b0" opacity="0.7"/><rect x="138.8" y="1471.4" width="32.6" height="10.4" fill="#78b4f6" opacity="0.7"/><rect x="305.8" y="1524.4" width="39.4" height="12.6" fill="#78b4f6" opacity="0.7"/><rect x="519.8" y="1526.5" width="119" height="12.7" fill="#2858b0" opacity="0.7"/><rect x="1078.6" y="1438.1" width="85" height="9.1" fill="#78b4f6" opacity="0.7"/><rect x="706.7" y="1514.7" width="76.3" height="12.2" fill="#2858b0" opacity="0.7"/><rect x="849.2" y="1709.6" width="126.2" height="20.2" fill="#2858b0" opacity="0.7"/><rect x="1052.1" y="1866.4" width="83.1" height="26.6" fill="#2858b0" opacity="0.7"/><rect x="636.7" y="1762.8" width="69.9" height="22.4" fill="#2858b0" opacity="0.7"/><rect x="965.4" y="1422.9" width="26.4" height="8.4" fill="#78b4f6" opacity="0.7"/><rect x="894.5" y="1838.8" width="159.2" height="25.5" fill="#78b4f6" opacity="0.7"/><rect x="663" y="1456.5" width="61.4" height="9.8" fill="#78b4f6" opacity="0.7"/><rect x="289.6" y="1440.7" width="28.7" height="9.2" fill="#2858b0" opacity="0.7"/><rect x="240.9" y="1565.4" width="133.9" height="14.3" fill="#78b4f6" opacity="0.7"/><rect x="113.3" y="1842.2" width="80" height="25.6" fill="#2858b0" opacity="0.7"/><rect x="579.5" y="1694.4" width="122.3" height="19.6" fill="#2858b0" opacity="0.7"/><rect x="131.8" y="1486.2" width="69" height="11" fill="#2858b0" opacity="0.7"/><rect x="785.4" y="1905.1" width="88.1" height="28.2" fill="#78b4f6" opacity="0.7"/><rect x="151.9" y="1683.3" width="59.7" height="19.1" fill="#2858b0" opacity="0.7"/><rect x="698.4" y="1836.6" width="158.7" height="25.4" fill="#2858b0" opacity="0.7"/><rect x="357.7" y="1523.2" width="78.5" height="12.6" fill="#78b4f6" opacity="0.7"/><rect x="793.9" y="1834" width="158" height="25.3" fill="#78b4f6" opacity="0.7"/><rect x="1058.1" y="1476.2" width="99.7" height="10.6" fill="#2858b0" opacity="0.7"/><rect x="135.7" y="1599.1" width="97.9" height="15.7" fill="#78b4f6" opacity="0.7"/><rect x="230.3" y="1567.8" width="44.9" height="14.4" fill="#2858b0" opacity="0.7"/><rect x="357.2" y="1419.4" width="51.9" height="8.3" fill="#2858b0" opacity="0.7"/><rect x="675.7" y="1730.3" width="197.2" height="21" fill="#78b4f6" opacity="0.7"/><rect x="293.9" y="1387.6" width="43.8" height="7" fill="#2858b0" opacity="0.7"/><rect x="881.4" y="1747.9" width="203.9" height="21.8" fill="#2858b0" opacity="0.7"/><rect x="651.3" y="1703.8" width="187" height="19.9" fill="#2858b0" opacity="0.7"/><rect x="696.7" y="1671" width="58.1" height="18.6" fill="#78b4f6" opacity="0.7"/><rect x="136.9" y="1583.5" width="46.9" height="15" fill="#2858b0" opacity="0.7"/><rect x="502.9" y="1373.6" width="60.3" height="6.4" fill="#78b4f6" opacity="0.7"/><rect x="778.2" y="1490" width="70" height="11.2" fill="#78b4f6" opacity="0.7"/><rect x="713.4" y="1430.8" width="82.2" height="8.8" fill="#78b4f6" opacity="0.7"/><rect x="222.8" y="1336.8" width="15.4" height="4.9" fill="#78b4f6" opacity="0.7"/><rect x="893.2" y="1604.4" width="99.2" height="15.9" fill="#78b4f6" opacity="0.7"/><rect x="372" y="1677.6" width="176.9" height="18.9" fill="#2858b0" opacity="0.7"/><rect x="513.3" y="1400.3" width="70.5" height="7.5" fill="#78b4f6" opacity="0.7"/><rect x="603.2" y="1610.4" width="50.4" height="16.1" fill="#78b4f6" opacity="0.7"/><rect x="921.7" y="1511.6" width="75.5" height="12.1" fill="#78b4f6" opacity="0.7"/><rect x="211.1" y="1432.2" width="82.8" height="8.8" fill="#2858b0" opacity="0.7"/><rect x="625.7" y="1694.5" width="61.1" height="19.6" fill="#2858b0" opacity="0.7"/><rect x="400.3" y="1343.8" width="32.5" height="5.2" fill="#2858b0" opacity="0.7"/><rect x="994.5" y="1495.5" width="35.7" height="11.4" fill="#2858b0" opacity="0.7"/><rect x="924.9" y="1426.6" width="53.7" height="8.6" fill="#78b4f6" opacity="0.7"/><rect x="137.1" y="1669.8" width="58" height="18.6" fill="#2858b0" opacity="0.7"/><rect x="914.5" y="1881.5" width="85.1" height="27.2" fill="#78b4f6" opacity="0.7"/><rect x="111" y="1452.1" width="60.3" height="9.6" fill="#78b4f6" opacity="0.7"/><rect x="922.4" y="1449.4" width="89.4" height="9.5" fill="#78b4f6" opacity="0.7"/><rect x="871" y="1517.3" width="76.9" height="12.3" fill="#2858b0" opacity="0.7"/><rect x="1077.7" y="1612.8" width="50.7" height="16.2" fill="#2858b0" opacity="0.7"/><rect x="256.9" y="1711.9" width="63.4" height="20.3" fill="#2858b0" opacity="0.7"/><rect x="267.5" y="1347.1" width="50.1" height="5.3" fill="#2858b0" opacity="0.7"/><rect x="89.8" y="1471.6" width="97.9" height="10.4" fill="#78b4f6" opacity="0.7"/><rect x="665.8" y="1352" width="34.6" height="5.5" fill="#78b4f6" opacity="0.7"/><rect x="216.7" y="1526.4" width="39.6" height="12.7" fill="#2858b0" opacity="0.7"/><rect x="193.6" y="1771.3" width="71" height="22.7" fill="#2858b0" opacity="0.7"/><rect x="1002.5" y="1680.1" width="59.3" height="19" fill="#78b4f6" opacity="0.7"/><rect x="627.9" y="1851.8" width="243.8" height="26" fill="#2858b0" opacity="0.7"/><rect x="789.7" y="1915.6" width="178.9" height="28.6" fill="#2858b0" opacity="0.7"/><rect x="953.4" y="1659.2" width="169.9" height="18.1" fill="#2858b0" opacity="0.7"/><rect x="0.8" y="1370.5" width="59.1" height="6.3" fill="#2858b0" opacity="0.7"/><rect x="724" y="1426.9" width="80.7" height="8.6" fill="#2858b0" opacity="0.7"/><rect x="284.5" y="1351.9" width="51.9" height="5.5" fill="#2858b0" opacity="0.7"/><rect x="732" y="1678.3" width="118.2" height="18.9" fill="#78b4f6" opacity="0.7"/><rect x="911.1" y="1802.6" width="150" height="24" fill="#78b4f6" opacity="0.7"/><rect x="259.2" y="1386.1" width="43.4" height="6.9" fill="#2858b0" opacity="0.7"/><rect x="376.9" y="1626.5" width="104.9" height="16.8" fill="#78b4f6" opacity="0.7"/><rect x="933.4" y="1333.6" width="44.9" height="4.8" fill="#78b4f6" opacity="0.7"/><rect x="784.2" y="1435.7" width="28" height="9" fill="#2858b0" opacity="0.7"/><rect x="408.1" y="1761.5" width="139.4" height="22.3" fill="#2858b0" opacity="0.7"/><rect x="862.3" y="1832" width="157.5" height="25.2" fill="#78b4f6" opacity="0.7"/><rect x="325.6" y="1791.4" width="73.5" height="23.5" fill="#2858b0" opacity="0.7"/><rect x="440.6" y="1416.7" width="25.6" height="8.2" fill="#2858b0" opacity="0.7"/><rect x="493.5" y="1429.4" width="54.4" height="8.7" fill="#78b4f6" opacity="0.7"/><rect x="610.8" y="1609.5" width="150.8" height="16.1" fill="#2858b0" opacity="0.7"/><rect x="1006" y="1824.1" width="77.7" height="24.9" fill="#78b4f6" opacity="0.7"/><rect x="481" y="1777.5" width="126.4" height="15.8" fill="#fff2c0" opacity="0.95"/><rect x="596.9" y="1646.3" width="95.5" height="11.9" fill="#fff2c0" opacity="0.56"/><rect x="413.7" y="1619.4" width="89.2" height="11.1" fill="#fff2c0" opacity="0.51"/><rect x="500.6" y="1376.4" width="31.9" height="4" fill="#fff2c0" opacity="0.59"/><rect x="497.5" y="1663.4" width="99.5" height="12.4" fill="#fff2c0" opacity="0.59"/><rect x="446.4" y="1711.3" width="110.8" height="13.9" fill="#fff2c0" opacity="0.83"/><rect x="435.5" y="1555.9" width="74.2" height="9.3" fill="#fff2c0" opacity="0.58"/><rect x="507.1" y="1893.2" width="153.7" height="19.2" fill="#fff2c0" opacity="0.77"/><rect x="490.6" y="1679.7" width="103.4" height="12.9" fill="#fff2c0" opacity="0.57"/><rect x="533.2" y="1762.7" width="122.9" height="15.4" fill="#fff2c0" opacity="0.89"/><rect x="390.5" y="1605" width="85.8" height="10.7" fill="#fff2c0" opacity="0.67"/><rect x="514.5" y="1640.8" width="94.2" height="11.8" fill="#fff2c0" opacity="0.63"/><rect x="490.8" y="1546.5" width="72" height="9" fill="#fff2c0" opacity="0.91"/><rect x="478.6" y="1399" width="37.2" height="4.7" fill="#fff2c0" opacity="0.92"/><rect x="370.5" y="1660.5" width="98.8" height="12.4" fill="#fff2c0" opacity="0.60"/><rect x="505.8" y="1557.4" width="74.5" height="9.3" fill="#fff2c0" opacity="0.87"/><rect x="392" y="1715.9" width="111.9" height="14" fill="#fff2c0" opacity="0.81"/><rect x="517.3" y="1742.3" width="118.1" height="14.8" fill="#fff2c0" opacity="0.70"/><rect x="612.6" y="1669.3" width="100.9" height="12.6" fill="#fff2c0" opacity="0.70"/><rect x="588" y="1598.7" width="84.3" height="10.5" fill="#fff2c0" opacity="0.76"/><rect x="585.3" y="1501.9" width="61.5" height="7.7" fill="#fff2c0" opacity="0.73"/><rect x="466.7" y="1489.6" width="58.6" height="7.3" fill="#fff2c0" opacity="0.55"/><rect x="428.5" y="1655" width="97.5" height="12.2" fill="#fff2c0" opacity="0.90"/><rect x="552.9" y="1445" width="48" height="6" fill="#fff2c0" opacity="0.78"/><rect x="427.3" y="1836.1" width="140.2" height="17.5" fill="#fff2c0" opacity="0.63"/><rect x="547" y="1783.6" width="127.8" height="16" fill="#fff2c0" opacity="0.87"/><rect x="519.8" y="1458.3" width="51.2" height="6.4" fill="#fff2c0" opacity="0.77"/><rect x="490.9" y="1768.3" width="124.3" height="15.5" fill="#fff2c0" opacity="0.51"/><rect x="460.7" y="1737.4" width="117" height="14.6" fill="#fff2c0" opacity="0.69"/><rect x="591.7" y="1731.6" width="115.6" height="14.4" fill="#fff2c0" opacity="0.73"/><rect x="542.3" y="1789.3" width="129.2" height="16.2" fill="#fff2c0" opacity="0.71"/><rect x="437.9" y="1738.5" width="117.2" height="14.7" fill="#fff2c0" opacity="0.93"/><rect x="500" y="1356.1" width="27.1" height="3.4" fill="#fff2c0" opacity="0.56"/><rect x="345" y="1847.4" width="142.9" height="17.9" fill="#fff2c0" opacity="0.57"/><rect x="447.4" y="1481" width="56.5" height="7.1" fill="#fff2c0" opacity="0.79"/><rect x="558.3" y="1553.3" width="73.6" height="9.2" fill="#fff2c0" opacity="0.59"/><rect x="469.6" y="1824.3" width="137.4" height="17.2" fill="#fff2c0" opacity="0.67"/><rect x="420.8" y="1633.7" width="92.5" height="11.6" fill="#fff2c0" opacity="0.63"/><rect x="567.1" y="1596.8" width="83.8" height="10.5" fill="#fff2c0" opacity="0.55"/><rect x="492" y="1626.5" width="90.8" height="11.4" fill="#fff2c0" opacity="0.75"/><rect x="569" y="1365.4" width="29.3" height="3.7" fill="#fff2c0" opacity="0.71"/><rect x="448.1" y="1593.8" width="83.1" height="10.4" fill="#fff2c0" opacity="0.83"/><rect x="439.9" y="1713.3" width="111.3" height="13.9" fill="#fff2c0" opacity="0.77"/><rect x="510.6" y="1357.7" width="27.5" height="3.4" fill="#fff2c0" opacity="0.51"/><rect x="407.5" y="1607.5" width="86.3" height="10.8" fill="#fff2c0" opacity="0.78"/><rect x="423.3" y="1517.8" width="65.2" height="8.2" fill="#fff2c0" opacity="0.50"/></g>
</g>
</svg>
