<svg xmlns="http://www.w3.org/2000/svg" viewBox="0 0 1080 1920" width="1080" height="1920">
<title>bg04-sky — dawn: ближний план</title>
<defs>
<linearGradient id="bg04-dawn-sky" x1="0" y1="0" x2="0" y2="1"><stop offset="0" stop-color="#2a3474"/><stop offset="0.45" stop-color="#8a6aa8"/><stop offset="0.8" stop-color="#f09aa6"/><stop offset="1" stop-color="#ffc49a"/></linearGradient>
<radialGradient id="bg04-dawn-vig" cx="0.5" cy="0.46" r="0.78">
  <stop offset="0.55" stop-color="#1a0a2a" stop-opacity="0"/>
  <stop offset="1" stop-color="#1a0a2a" stop-opacity="0.38"/>
</radialGradient>
<filter id="bg04-dawn-ink" x="-5%" y="-5%" width="110%" height="110%" color-interpolation-filters="sRGB">
  <feMorphology in="SourceAlpha" operator="dilate" radius="3.3" result="d"/>
  <feFlood flood-color="#24152a" result="c"/>
  <feComposite in="c" in2="d" operator="in" result="o"/>
  <feMerge result="m"><feMergeNode in="o"/><feMergeNode in="SourceGraphic"/></feMerge>
  <feTurbulence type="fractalNoise" baseFrequency="0.022" numOctaves="2" seed="5" result="t"/>
  <feDisplacementMap in="m" in2="t" scale="4" xChannelSelector="R" yChannelSelector="G"/>
</filter>
<filter id="bg04-dawn-ink-soft" x="-5%" y="-5%" width="110%" height="110%" color-interpolation-filters="sRGB">
  <feMorphology in="SourceAlpha" operator="dilate" radius="1.6" result="d"/>
  <feFlood flood-color="#24152a" flood-opacity="0.55" result="c"/>
  <feComposite in="c" in2="d" operator="in" result="o"/>
  <feMerge><feMergeNode in="o"/><feMergeNode in="SourceGraphic"/></feMerge>
</filter>
<filter id="bg04-dawn-blur-far" x="-5%" y="-5%" width="110%" height="110%"><feGaussianBlur stdDeviation="4.5"/></filter>
<filter id="bg04-dawn-blur-mid" x="-5%" y="-5%" width="110%" height="110%"><feGaussianBlur stdDeviation="1.8"/></filter>
<filter id="bg04-dawn-blur-dof" x="-5%" y="-5%" width="110%" height="110%"><feGaussianBlur stdDeviation="11"/></filter>
<filter id="bg04-dawn-glow" x="-60%" y="-60%" width="220%" height="220%"><feGaussianBlur stdDeviation="28"/></filter>
<filter id="bg04-dawn-soft" x="-30%" y="-30%" width="160%" height="160%"><feGaussianBlur stdDeviation="8"/></filter>
<filter id="bg04-dawn-blur-soft" x="-30%" y="-30%" width="160%" height="160%"><feGaussianBlur stdDeviation="14"/></filter>
</defs>
<g id="near">
<g filter="url(#bg04-dawn-blur-mid)"><rect x="199.5" y="1525.5" width="30" height="444.5" fill="#5a9a58"/><rect x="229.5" y="1687.3" width="30" height="282.7" fill="#5a9a58"/><rect x="333" y="1426.3" width="30" height="543.7" fill="#5a9a58"/><rect x="363" y="1627.8" width="30" height="342.2" fill="#5a9a58"/><rect x="487.3" y="1478.6" width="30" height="491.4" fill="#467e48"/><rect x="517.3" y="1659.2" width="30" height="310.8" fill="#467e48"/><rect x="620.4" y="1505.6" width="30" height="464.4" fill="#72b066"/><rect x="650.4" y="1675.4" width="30" height="294.6" fill="#72b066"/><rect x="914.3" y="1548.9" width="30" height="421.1" fill="#72b066"/><rect x="944.3" y="1701.3" width="30" height="268.7" fill="#72b066"/><rect x="624.6" y="1538.6" width="30" height="431.4" fill="#72b066"/><rect x="654.6" y="1695.2" width="30" height="274.8" fill="#72b066"/><rect x="453.8" y="1708.4" width="30" height="261.6" fill="#72b066"/><rect x="483.8" y="1797" width="30" height="173" fill="#72b066"/><rect x="59.5" y="1569.3" width="30" height="400.7" fill="#72b066"/><rect x="89.5" y="1713.6" width="30" height="256.4" fill="#72b066"/><rect x="477.7" y="1433" width="30" height="537" fill="#72b066"/><rect x="507.7" y="1631.8" width="30" height="338.2" fill="#72b066"/><rect x="229.1" y="1449.6" width="30" height="520.4" fill="#5a9a58"/><rect x="259.1" y="1641.7" width="30" height="328.3" fill="#5a9a58"/><rect x="438.1" y="1426.2" width="30" height="543.8" fill="#467e48"/><rect x="468.1" y="1627.7" width="30" height="342.3" fill="#467e48"/><rect x="1021" y="1706.6" width="30" height="263.4" fill="#72b066"/><rect x="1051" y="1796" width="30" height="174" fill="#72b066"/><rect x="138.3" y="1461.5" width="30" height="508.5" fill="#72b066"/><rect x="168.3" y="1648.9" width="30" height="321.1" fill="#72b066"/><rect x="584.4" y="1697.7" width="30" height="272.3" fill="#467e48"/><rect x="614.4" y="1790.6" width="30" height="179.4" fill="#467e48"/><rect x="764.5" y="1423.5" width="30" height="546.5" fill="#5a9a58"/><rect x="794.5" y="1626.1" width="30" height="343.9" fill="#5a9a58"/><rect x="43.3" y="1678.8" width="30" height="291.2" fill="#5a9a58"/><rect x="73.3" y="1779.3" width="30" height="190.7" fill="#5a9a58"/><rect x="930.4" y="1601.3" width="30" height="368.7" fill="#72b066"/><rect x="960.4" y="1732.8" width="30" height="237.2" fill="#72b066"/><rect x="821.4" y="1422.4" width="30" height="547.6" fill="#5a9a58"/><rect x="851.4" y="1625.5" width="30" height="344.5" fill="#5a9a58"/><rect x="377.6" y="1495.3" width="30" height="474.7" fill="#5a9a58"/><rect x="407.6" y="1669.2" width="30" height="300.8" fill="#5a9a58"/><rect x="835.5" y="1666" width="30" height="304" fill="#467e48"/><rect x="865.5" y="1771.6" width="30" height="198.4" fill="#467e48"/><rect x="92.2" y="1692.9" width="30" height="277.1" fill="#467e48"/><rect x="122.2" y="1787.7" width="30" height="182.3" fill="#467e48"/><rect x="326.6" y="1418.8" width="30" height="551.2" fill="#72b066"/><rect x="356.6" y="1623.3" width="30" height="346.7" fill="#72b066"/><rect x="951" y="1606.3" width="30" height="363.7" fill="#72b066"/><rect x="981" y="1735.8" width="30" height="234.2" fill="#72b066"/><rect x="831.5" y="1668.8" width="30" height="301.2" fill="#5a9a58"/><rect x="861.5" y="1773.3" width="30" height="196.7" fill="#5a9a58"/><rect x="121.8" y="1412.5" width="30" height="557.5" fill="#467e48"/><rect x="151.8" y="1619.5" width="30" height="350.5" fill="#467e48"/><rect x="386.1" y="1656" width="30" height="314" fill="#467e48"/><rect x="416.1" y="1765.6" width="30" height="204.4" fill="#467e48"/></g>
<g filter="url(#bg04-dawn-blur-mid)"><rect x="142" y="1672" width="22" height="88" fill="#467e48"/><rect x="120" y="1628" width="66" height="44" fill="#c83a4a"/><rect x="142" y="1606" width="22" height="22" fill="#c83a4a"/><rect x="142" y="1639" width="22" height="22" fill="#2a1a1a"/><rect x="880" y="1720" width="20" height="80" fill="#467e48"/><rect x="860" y="1680" width="60" height="40" fill="#e8c050"/><rect x="880" y="1660" width="20" height="20" fill="#e8c050"/></g>
</g>
</svg>
